<svg width="1096" height="267" viewBox="0 0 1096 267" fill="none" xmlns="http://www.w3.org/2000/svg">
<path d="M4.05682 16.2727V3.54545H4.87216V16.2727H4.05682ZM6.80114 7.36364C6.74148 6.85985 6.49953 6.46875 6.07528 6.19034C5.65104 5.91193 5.13068 5.77273 4.5142 5.77273C4.06345 5.77273 3.66903 5.84564 3.33097 5.99148C2.99621 6.13731 2.73438 6.33783 2.54545 6.59304C2.35985 6.84825 2.26705 7.13826 2.26705 7.46307C2.26705 7.73485 2.33168 7.96851 2.46094 8.16406C2.59351 8.3563 2.76255 8.51705 2.96804 8.64631C3.17353 8.77225 3.38897 8.87666 3.61435 8.95952C3.83973 9.03906 4.04688 9.10369 4.2358 9.15341L5.26989 9.43182C5.53504 9.50142 5.83002 9.59754 6.15483 9.72017C6.48295 9.8428 6.79616 10.0102 7.09446 10.2223C7.39607 10.4311 7.64465 10.6996 7.8402 11.0277C8.03575 11.3558 8.13352 11.7585 8.13352 12.2358C8.13352 12.786 7.98935 13.2831 7.70099 13.7273C7.41596 14.1714 6.99834 14.5244 6.44815 14.7862C5.90128 15.0481 5.23674 15.179 4.45455 15.179C3.72538 15.179 3.09399 15.0613 2.56037 14.826C2.03007 14.5907 1.61245 14.2625 1.30753 13.8416C1.00592 13.4207 0.835227 12.9318 0.795455 12.375H2.06818C2.10133 12.7595 2.23059 13.0777 2.45597 13.3295C2.68466 13.5781 2.97301 13.7637 3.32102 13.8864C3.67235 14.0057 4.05019 14.0653 4.45455 14.0653C4.92519 14.0653 5.34777 13.9891 5.7223 13.8366C6.09683 13.6809 6.39347 13.4654 6.61222 13.1903C6.83097 12.9119 6.94034 12.5871 6.94034 12.2159C6.94034 11.8778 6.84588 11.6027 6.65696 11.3906C6.46804 11.1785 6.21946 11.0062 5.91122 10.8736C5.60298 10.741 5.26989 10.625 4.91193 10.5256L3.65909 10.1676C2.86364 9.93892 2.2339 9.61245 1.76989 9.18821C1.30587 8.76397 1.07386 8.20881 1.07386 7.52273C1.07386 6.95265 1.22798 6.45549 1.53622 6.03125C1.84777 5.60369 2.26539 5.27225 2.78906 5.03693C3.31605 4.7983 3.90436 4.67898 4.55398 4.67898C5.21023 4.67898 5.79356 4.79664 6.30398 5.03196C6.81439 5.26397 7.21875 5.58215 7.51705 5.98651C7.81866 6.39086 7.97775 6.8499 7.99432 7.36364H6.80114ZM13.2232 4.67898C13.6408 4.68229 14.0584 4.76184 14.476 4.91761C14.8936 5.07339 15.2748 5.33191 15.6195 5.69318C15.9642 6.05114 16.2409 6.54001 16.4498 7.1598C16.6586 7.77959 16.763 8.55682 16.763 9.49148C16.763 10.3963 16.6768 11.2 16.5044 11.9027C16.3354 12.602 16.0901 13.192 15.7686 13.6726C15.4505 14.1532 15.0627 14.5178 14.6053 14.7663C14.1512 15.0149 13.6375 15.1392 13.0641 15.1392C12.494 15.1392 11.9853 15.0265 11.5378 14.8011C11.0937 14.5724 10.7291 14.2559 10.4441 13.8516C10.1623 13.4439 9.98171 12.9716 9.90217 12.4347H11.1152C11.2246 12.902 11.4417 13.2881 11.7665 13.593C12.0946 13.8946 12.5272 14.0455 13.0641 14.0455C13.8496 14.0455 14.4694 13.7024 14.9235 13.0163C15.3809 12.3303 15.6096 11.3608 15.6096 10.108H15.53C15.3444 10.3864 15.124 10.6267 14.8688 10.8288C14.6136 11.031 14.3302 11.1868 14.0186 11.2962C13.7071 11.4055 13.3757 11.4602 13.0243 11.4602C12.441 11.4602 11.9057 11.3161 11.4185 11.0277C10.9346 10.736 10.5468 10.3366 10.2551 9.82955C9.9668 9.31913 9.82262 8.7358 9.82262 8.07955C9.82262 7.45644 9.96183 6.88636 10.2402 6.36932C10.522 5.84896 10.9164 5.43466 11.4235 5.12642C11.9339 4.81818 12.5338 4.66903 13.2232 4.67898ZM13.2232 5.77273C12.8056 5.77273 12.4294 5.87713 12.0946 6.08594C11.7632 6.29143 11.4997 6.56984 11.3042 6.92116C11.1119 7.26918 11.0158 7.6553 11.0158 8.07955C11.0158 8.50379 11.1086 8.88991 11.2942 9.23793C11.4831 9.58262 11.74 9.85772 12.0648 10.0632C12.3929 10.2654 12.7658 10.3665 13.1834 10.3665C13.4983 10.3665 13.7916 10.3052 14.0634 10.1825C14.3352 10.0566 14.5721 9.88589 14.7743 9.67045C14.9798 9.4517 15.1406 9.20478 15.2566 8.92969C15.3726 8.65128 15.4306 8.36127 15.4306 8.05966C15.4306 7.66193 15.3345 7.28906 15.1422 6.94105C14.9533 6.59304 14.6915 6.31132 14.3567 6.09588C14.0253 5.88044 13.6474 5.77273 13.2232 5.77273ZM22.0391 15.1392C21.29 15.1392 20.652 14.9354 20.125 14.5277C19.598 14.1167 19.1953 13.5218 18.9169 12.7429C18.6385 11.9607 18.4993 11.0161 18.4993 9.90909C18.4993 8.80871 18.6385 7.86908 18.9169 7.0902C19.1986 6.308 19.603 5.71141 20.13 5.30043C20.6603 4.88613 21.2966 4.67898 22.0391 4.67898C22.7815 4.67898 23.4162 4.88613 23.9432 5.30043C24.4735 5.71141 24.8778 6.308 25.1562 7.0902C25.438 7.86908 25.5788 8.80871 25.5788 9.90909C25.5788 11.0161 25.4396 11.9607 25.1612 12.7429C24.8828 13.5218 24.4801 14.1167 23.9531 14.5277C23.4261 14.9354 22.7881 15.1392 22.0391 15.1392ZM22.0391 14.0455C22.7815 14.0455 23.3582 13.6875 23.7692 12.9716C24.1802 12.2557 24.3857 11.2348 24.3857 9.90909C24.3857 9.02746 24.2912 8.27675 24.1023 7.65696C23.9167 7.03717 23.6482 6.56487 23.2969 6.24006C22.9489 5.91525 22.5296 5.75284 22.0391 5.75284C21.3033 5.75284 20.7282 6.11577 20.3139 6.84162C19.8996 7.56416 19.6925 8.58665 19.6925 9.90909C19.6925 10.7907 19.7853 11.5398 19.9709 12.1562C20.1565 12.7727 20.4233 13.2417 20.7713 13.5632C21.1226 13.8847 21.5452 14.0455 22.0391 14.0455ZM30.7891 15.1392C30.04 15.1392 29.402 14.9354 28.875 14.5277C28.348 14.1167 27.9453 13.5218 27.6669 12.7429C27.3885 11.9607 27.2493 11.0161 27.2493 9.90909C27.2493 8.80871 27.3885 7.86908 27.6669 7.0902C27.9486 6.308 28.353 5.71141 28.88 5.30043C29.4103 4.88613 30.0466 4.67898 30.7891 4.67898C31.5315 4.67898 32.1662 4.88613 32.6932 5.30043C33.2235 5.71141 33.6278 6.308 33.9062 7.0902C34.188 7.86908 34.3288 8.80871 34.3288 9.90909C34.3288 11.0161 34.1896 11.9607 33.9112 12.7429C33.6328 13.5218 33.2301 14.1167 32.7031 14.5277C32.1761 14.9354 31.5381 15.1392 30.7891 15.1392ZM30.7891 14.0455C31.5315 14.0455 32.1082 13.6875 32.5192 12.9716C32.9302 12.2557 33.1357 11.2348 33.1357 9.90909C33.1357 9.02746 33.0412 8.27675 32.8523 7.65696C32.6667 7.03717 32.3982 6.56487 32.0469 6.24006C31.6989 5.91525 31.2796 5.75284 30.7891 5.75284C30.0533 5.75284 29.4782 6.11577 29.0639 6.84162C28.6496 7.56416 28.4425 8.58665 28.4425 9.90909C28.4425 10.7907 28.5353 11.5398 28.7209 12.1562C28.9065 12.7727 29.1733 13.2417 29.5213 13.5632C29.8726 13.8847 30.2952 14.0455 30.7891 14.0455Z" fill="#888E9E"/>
<path d="M4.05682 72.2727V59.5455H4.87216V72.2727H4.05682ZM6.80114 63.3636C6.74148 62.8598 6.49953 62.4688 6.07528 62.1903C5.65104 61.9119 5.13068 61.7727 4.5142 61.7727C4.06345 61.7727 3.66903 61.8456 3.33097 61.9915C2.99621 62.1373 2.73438 62.3378 2.54545 62.593C2.35985 62.8482 2.26705 63.1383 2.26705 63.4631C2.26705 63.7348 2.33168 63.9685 2.46094 64.1641C2.59351 64.3563 2.76255 64.517 2.96804 64.6463C3.17353 64.7723 3.38897 64.8767 3.61435 64.9595C3.83973 65.0391 4.04688 65.1037 4.2358 65.1534L5.26989 65.4318C5.53504 65.5014 5.83002 65.5975 6.15483 65.7202C6.48295 65.8428 6.79616 66.0102 7.09446 66.2223C7.39607 66.4311 7.64465 66.6996 7.8402 67.0277C8.03575 67.3558 8.13352 67.7585 8.13352 68.2358C8.13352 68.786 7.98935 69.2831 7.70099 69.7273C7.41596 70.1714 6.99834 70.5244 6.44815 70.7862C5.90128 71.0481 5.23674 71.179 4.45455 71.179C3.72538 71.179 3.09399 71.0613 2.56037 70.826C2.03007 70.5907 1.61245 70.2625 1.30753 69.8416C1.00592 69.4207 0.835227 68.9318 0.795455 68.375H2.06818C2.10133 68.7595 2.23059 69.0777 2.45597 69.3295C2.68466 69.5781 2.97301 69.7637 3.32102 69.8864C3.67235 70.0057 4.05019 70.0653 4.45455 70.0653C4.92519 70.0653 5.34777 69.9891 5.7223 69.8366C6.09683 69.6809 6.39347 69.4654 6.61222 69.1903C6.83097 68.9119 6.94034 68.5871 6.94034 68.2159C6.94034 67.8778 6.84588 67.6027 6.65696 67.3906C6.46804 67.1785 6.21946 67.0062 5.91122 66.8736C5.60298 66.741 5.26989 66.625 4.91193 66.5256L3.65909 66.1676C2.86364 65.9389 2.2339 65.6125 1.76989 65.1882C1.30587 64.764 1.07386 64.2088 1.07386 63.5227C1.07386 62.9527 1.22798 62.4555 1.53622 62.0312C1.84777 61.6037 2.26539 61.2723 2.78906 61.0369C3.31605 60.7983 3.90436 60.679 4.55398 60.679C5.21023 60.679 5.79356 60.7966 6.30398 61.032C6.81439 61.264 7.21875 61.5821 7.51705 61.9865C7.81866 62.3909 7.97775 62.8499 7.99432 63.3636H6.80114ZM13.2431 71.1392C12.5603 71.1392 11.9571 71.0182 11.4334 70.7763C10.9131 70.531 10.507 70.1946 10.2154 69.767C9.92371 69.3362 9.77953 68.8456 9.78285 68.2955C9.77953 67.8646 9.86405 67.4669 10.0364 67.1023C10.2087 66.7344 10.4441 66.4278 10.7424 66.1825C11.044 65.9339 11.3804 65.7765 11.7516 65.7102V65.6506C11.2644 65.5246 10.8766 65.2512 10.5882 64.8303C10.2999 64.406 10.1574 63.9238 10.1607 63.3835C10.1574 62.8665 10.2883 62.4041 10.5534 61.9964C10.8186 61.5888 11.1832 61.2673 11.6472 61.032C12.1145 60.7966 12.6465 60.679 13.2431 60.679C13.833 60.679 14.36 60.7966 14.824 61.032C15.2881 61.2673 15.6526 61.5888 15.9178 61.9964C16.1863 62.4041 16.3221 62.8665 16.3255 63.3835C16.3221 63.9238 16.1747 64.406 15.883 64.8303C15.5946 65.2512 15.2118 65.5246 14.7346 65.6506V65.7102C15.1025 65.7765 15.4339 65.9339 15.7289 66.1825C16.0239 66.4278 16.2592 66.7344 16.4348 67.1023C16.6105 67.4669 16.7 67.8646 16.7033 68.2955C16.7 68.8456 16.5508 69.3362 16.2559 69.767C15.9642 70.1946 15.5582 70.531 15.0378 70.7763C14.5208 71.0182 13.9225 71.1392 13.2431 71.1392ZM13.2431 70.0455C13.7038 70.0455 14.1015 69.9709 14.4363 69.8217C14.771 69.6726 15.0295 69.4621 15.2118 69.1903C15.3941 68.9186 15.4869 68.6004 15.4902 68.2358C15.4869 67.8513 15.3875 67.5116 15.1919 67.2166C14.9964 66.9216 14.7296 66.6896 14.3915 66.5206C14.0568 66.3516 13.6739 66.267 13.2431 66.267C12.8089 66.267 12.4211 66.3516 12.0797 66.5206C11.7417 66.6896 11.4748 66.9216 11.2793 67.2166C11.0871 67.5116 10.9926 67.8513 10.9959 68.2358C10.9926 68.6004 11.0804 68.9186 11.2594 69.1903C11.4417 69.4621 11.7019 69.6726 12.04 69.8217C12.378 69.9709 12.7791 70.0455 13.2431 70.0455ZM13.2431 65.2131C13.6077 65.2131 13.9308 65.1402 14.2125 64.9943C14.4976 64.8485 14.7213 64.6446 14.8837 64.3828C15.0461 64.121 15.129 63.8144 15.1323 63.4631C15.129 63.1184 15.0478 62.8184 14.8887 62.5632C14.7296 62.3047 14.5092 62.1058 14.2275 61.9666C13.9457 61.8241 13.6176 61.7528 13.2431 61.7528C12.8619 61.7528 12.5288 61.8241 12.2438 61.9666C11.9587 62.1058 11.7383 62.3047 11.5826 62.5632C11.4268 62.8184 11.3506 63.1184 11.3539 63.4631C11.3506 63.8144 11.4284 64.121 11.5875 64.3828C11.7499 64.6446 11.9737 64.8485 12.2587 64.9943C12.5437 65.1402 12.8719 65.2131 13.2431 65.2131ZM21.9297 71.1392C21.1806 71.1392 20.5426 70.9354 20.0156 70.5277C19.4886 70.1167 19.0859 69.5218 18.8075 68.7429C18.5291 67.9607 18.3899 67.0161 18.3899 65.9091C18.3899 64.8087 18.5291 63.8691 18.8075 63.0902C19.0893 62.308 19.4936 61.7114 20.0206 61.3004C20.5509 60.8861 21.1873 60.679 21.9297 60.679C22.6721 60.679 23.3068 60.8861 23.8338 61.3004C24.3641 61.7114 24.7685 62.308 25.0469 63.0902C25.3286 63.8691 25.4695 64.8087 25.4695 65.9091C25.4695 67.0161 25.3303 67.9607 25.0518 68.7429C24.7734 69.5218 24.3707 70.1167 23.8438 70.5277C23.3168 70.9354 22.6787 71.1392 21.9297 71.1392ZM21.9297 70.0455C22.6721 70.0455 23.2488 69.6875 23.6598 68.9716C24.0708 68.2557 24.2763 67.2348 24.2763 65.9091C24.2763 65.0275 24.1818 64.2768 23.9929 63.657C23.8073 63.0372 23.5388 62.5649 23.1875 62.2401C22.8395 61.9152 22.4202 61.7528 21.9297 61.7528C21.1939 61.7528 20.6188 62.1158 20.2045 62.8416C19.7902 63.5642 19.5831 64.5866 19.5831 65.9091C19.5831 66.7907 19.6759 67.5398 19.8615 68.1562C20.0471 68.7727 20.3139 69.2417 20.6619 69.5632C21.0133 69.8847 21.4358 70.0455 21.9297 70.0455ZM30.6797 71.1392C29.9306 71.1392 29.2926 70.9354 28.7656 70.5277C28.2386 70.1167 27.8359 69.5218 27.5575 68.7429C27.2791 67.9607 27.1399 67.0161 27.1399 65.9091C27.1399 64.8087 27.2791 63.8691 27.5575 63.0902C27.8393 62.308 28.2436 61.7114 28.7706 61.3004C29.3009 60.8861 29.9373 60.679 30.6797 60.679C31.4221 60.679 32.0568 60.8861 32.5838 61.3004C33.1141 61.7114 33.5185 62.308 33.7969 63.0902C34.0786 63.8691 34.2195 64.8087 34.2195 65.9091C34.2195 67.0161 34.0803 67.9607 33.8018 68.7429C33.5234 69.5218 33.1207 70.1167 32.5938 70.5277C32.0668 70.9354 31.4287 71.1392 30.6797 71.1392ZM30.6797 70.0455C31.4221 70.0455 31.9988 69.6875 32.4098 68.9716C32.8208 68.2557 33.0263 67.2348 33.0263 65.9091C33.0263 65.0275 32.9318 64.2768 32.7429 63.657C32.5573 63.0372 32.2888 62.5649 31.9375 62.2401C31.5895 61.9152 31.1702 61.7528 30.6797 61.7528C29.9439 61.7528 29.3688 62.1158 28.9545 62.8416C28.5402 63.5642 28.3331 64.5866 28.3331 65.9091C28.3331 66.7907 28.4259 67.5398 28.6115 68.1562C28.7971 68.7727 29.0639 69.2417 29.4119 69.5632C29.7633 69.8847 30.1858 70.0455 30.6797 70.0455Z" fill="#888E9E"/>
<path d="M4.05682 128.273V115.545H4.87216V128.273H4.05682ZM6.80114 119.364C6.74148 118.86 6.49953 118.469 6.07528 118.19C5.65104 117.912 5.13068 117.773 4.5142 117.773C4.06345 117.773 3.66903 117.846 3.33097 117.991C2.99621 118.137 2.73438 118.338 2.54545 118.593C2.35985 118.848 2.26705 119.138 2.26705 119.463C2.26705 119.735 2.33168 119.969 2.46094 120.164C2.59351 120.356 2.76255 120.517 2.96804 120.646C3.17353 120.772 3.38897 120.877 3.61435 120.96C3.83973 121.039 4.04688 121.104 4.2358 121.153L5.26989 121.432C5.53504 121.501 5.83002 121.598 6.15483 121.72C6.48295 121.843 6.79616 122.01 7.09446 122.222C7.39607 122.431 7.64465 122.7 7.8402 123.028C8.03575 123.356 8.13352 123.759 8.13352 124.236C8.13352 124.786 7.98935 125.283 7.70099 125.727C7.41596 126.171 6.99834 126.524 6.44815 126.786C5.90128 127.048 5.23674 127.179 4.45455 127.179C3.72538 127.179 3.09399 127.061 2.56037 126.826C2.03007 126.591 1.61245 126.263 1.30753 125.842C1.00592 125.421 0.835227 124.932 0.795455 124.375H2.06818C2.10133 124.759 2.23059 125.078 2.45597 125.33C2.68466 125.578 2.97301 125.764 3.32102 125.886C3.67235 126.006 4.05019 126.065 4.45455 126.065C4.92519 126.065 5.34777 125.989 5.7223 125.837C6.09683 125.681 6.39347 125.465 6.61222 125.19C6.83097 124.912 6.94034 124.587 6.94034 124.216C6.94034 123.878 6.84588 123.603 6.65696 123.391C6.46804 123.179 6.21946 123.006 5.91122 122.874C5.60298 122.741 5.26989 122.625 4.91193 122.526L3.65909 122.168C2.86364 121.939 2.2339 121.612 1.76989 121.188C1.30587 120.764 1.07386 120.209 1.07386 119.523C1.07386 118.953 1.22798 118.455 1.53622 118.031C1.84777 117.604 2.26539 117.272 2.78906 117.037C3.31605 116.798 3.90436 116.679 4.55398 116.679C5.21023 116.679 5.79356 116.797 6.30398 117.032C6.81439 117.264 7.21875 117.582 7.51705 117.987C7.81866 118.391 7.97775 118.85 7.99432 119.364H6.80114ZM10.2999 127L14.8539 117.991V117.912H9.60387V116.818H16.1266V117.972L11.5925 127H10.2999ZM21.082 127.139C20.333 127.139 19.695 126.935 19.168 126.528C18.641 126.117 18.2383 125.522 17.9599 124.743C17.6815 123.961 17.5423 123.016 17.5423 121.909C17.5423 120.809 17.6815 119.869 17.9599 119.09C18.2416 118.308 18.646 117.711 19.1729 117.3C19.7032 116.886 20.3396 116.679 21.082 116.679C21.8245 116.679 22.4592 116.886 22.9862 117.3C23.5165 117.711 23.9208 118.308 24.1992 119.09C24.4809 119.869 24.6218 120.809 24.6218 121.909C24.6218 123.016 24.4826 123.961 24.2042 124.743C23.9258 125.522 23.5231 126.117 22.9961 126.528C22.4691 126.935 21.8311 127.139 21.082 127.139ZM21.082 126.045C21.8245 126.045 22.4012 125.687 22.8121 124.972C23.2231 124.256 23.4286 123.235 23.4286 121.909C23.4286 121.027 23.3342 120.277 23.1452 119.657C22.9596 119.037 22.6912 118.565 22.3398 118.24C21.9918 117.915 21.5726 117.753 21.082 117.753C20.3462 117.753 19.7712 118.116 19.3569 118.842C18.9426 119.564 18.7354 120.587 18.7354 121.909C18.7354 122.791 18.8282 123.54 19.0138 124.156C19.1995 124.773 19.4663 125.242 19.8143 125.563C20.1656 125.885 20.5882 126.045 21.082 126.045ZM29.832 127.139C29.083 127.139 28.445 126.935 27.918 126.528C27.391 126.117 26.9883 125.522 26.7099 124.743C26.4315 123.961 26.2923 123.016 26.2923 121.909C26.2923 120.809 26.4315 119.869 26.7099 119.09C26.9916 118.308 27.396 117.711 27.9229 117.3C28.4532 116.886 29.0896 116.679 29.832 116.679C30.5745 116.679 31.2092 116.886 31.7362 117.3C32.2665 117.711 32.6708 118.308 32.9492 119.09C33.2309 119.869 33.3718 120.809 33.3718 121.909C33.3718 123.016 33.2326 123.961 32.9542 124.743C32.6758 125.522 32.2731 126.117 31.7461 126.528C31.2191 126.935 30.5811 127.139 29.832 127.139ZM29.832 126.045C30.5745 126.045 31.1512 125.687 31.5621 124.972C31.9731 124.256 32.1786 123.235 32.1786 121.909C32.1786 121.027 32.0842 120.277 31.8952 119.657C31.7096 119.037 31.4412 118.565 31.0898 118.24C30.7418 117.915 30.3226 117.753 29.832 117.753C29.0962 117.753 28.5212 118.116 28.1069 118.842C27.6926 119.564 27.4854 120.587 27.4854 121.909C27.4854 122.791 27.5782 123.54 27.7638 124.156C27.9495 124.773 28.2163 125.242 28.5643 125.563C28.9156 125.885 29.3382 126.045 29.832 126.045Z" fill="#888E9E"/>
<path d="M4.05682 184.273V171.545H4.87216V184.273H4.05682ZM6.80114 175.364C6.74148 174.86 6.49953 174.469 6.07528 174.19C5.65104 173.912 5.13068 173.773 4.5142 173.773C4.06345 173.773 3.66903 173.846 3.33097 173.991C2.99621 174.137 2.73438 174.338 2.54545 174.593C2.35985 174.848 2.26705 175.138 2.26705 175.463C2.26705 175.735 2.33168 175.969 2.46094 176.164C2.59351 176.356 2.76255 176.517 2.96804 176.646C3.17353 176.772 3.38897 176.877 3.61435 176.96C3.83973 177.039 4.04688 177.104 4.2358 177.153L5.26989 177.432C5.53504 177.501 5.83002 177.598 6.15483 177.72C6.48295 177.843 6.79616 178.01 7.09446 178.222C7.39607 178.431 7.64465 178.7 7.8402 179.028C8.03575 179.356 8.13352 179.759 8.13352 180.236C8.13352 180.786 7.98935 181.283 7.70099 181.727C7.41596 182.171 6.99834 182.524 6.44815 182.786C5.90128 183.048 5.23674 183.179 4.45455 183.179C3.72538 183.179 3.09399 183.061 2.56037 182.826C2.03007 182.591 1.61245 182.263 1.30753 181.842C1.00592 181.421 0.835227 180.932 0.795455 180.375H2.06818C2.10133 180.759 2.23059 181.078 2.45597 181.33C2.68466 181.578 2.97301 181.764 3.32102 181.886C3.67235 182.006 4.05019 182.065 4.45455 182.065C4.92519 182.065 5.34777 181.989 5.7223 181.837C6.09683 181.681 6.39347 181.465 6.61222 181.19C6.83097 180.912 6.94034 180.587 6.94034 180.216C6.94034 179.878 6.84588 179.603 6.65696 179.391C6.46804 179.179 6.21946 179.006 5.91122 178.874C5.60298 178.741 5.26989 178.625 4.91193 178.526L3.65909 178.168C2.86364 177.939 2.2339 177.612 1.76989 177.188C1.30587 176.764 1.07386 176.209 1.07386 175.523C1.07386 174.953 1.22798 174.455 1.53622 174.031C1.84777 173.604 2.26539 173.272 2.78906 173.037C3.31605 172.798 3.90436 172.679 4.55398 172.679C5.21023 172.679 5.79356 172.797 6.30398 173.032C6.81439 173.264 7.21875 173.582 7.51705 173.987C7.81866 174.391 7.97775 174.85 7.99432 175.364H6.80114ZM13.3624 183.139C12.9448 183.133 12.5272 183.053 12.1096 182.901C11.6919 182.748 11.3108 182.491 10.9661 182.13C10.6214 181.765 10.3446 181.273 10.1358 180.653C9.92702 180.03 9.82262 179.248 9.82262 178.307C9.82262 177.405 9.90714 176.607 10.0762 175.911C10.2452 175.211 10.4905 174.623 10.812 174.146C11.1335 173.665 11.5212 173.3 11.9753 173.052C12.4327 172.803 12.9481 172.679 13.5215 172.679C14.0916 172.679 14.5987 172.793 15.0428 173.022C15.4902 173.247 15.8548 173.562 16.1365 173.967C16.4183 174.371 16.6006 174.837 16.6834 175.364H15.4703C15.3577 174.906 15.1389 174.527 14.8141 174.225C14.4893 173.924 14.0584 173.773 13.5215 173.773C12.7327 173.773 12.1112 174.116 11.6571 174.802C11.2064 175.488 10.9793 176.451 10.976 177.69H11.0556C11.2412 177.409 11.4616 177.168 11.7168 176.969C11.9753 176.767 12.2604 176.612 12.5719 176.502C12.8835 176.393 13.2132 176.338 13.5613 176.338C14.1446 176.338 14.6782 176.484 15.1621 176.776C15.646 177.064 16.0338 177.463 16.3255 177.974C16.6171 178.481 16.763 179.062 16.763 179.719C16.763 180.348 16.6221 180.925 16.3404 181.449C16.0587 181.969 15.6626 182.384 15.1522 182.692C14.6451 182.997 14.0485 183.146 13.3624 183.139ZM13.3624 182.045C13.78 182.045 14.1545 181.941 14.486 181.732C14.8207 181.523 15.0842 181.243 15.2765 180.892C15.472 180.541 15.5698 180.15 15.5698 179.719C15.5698 179.298 15.4753 178.915 15.2864 178.57C15.1008 178.222 14.8439 177.946 14.5158 177.74C14.191 177.535 13.8198 177.432 13.4022 177.432C13.0873 177.432 12.794 177.495 12.5222 177.621C12.2504 177.743 12.0118 177.912 11.8063 178.128C11.6041 178.343 11.445 178.59 11.329 178.869C11.213 179.144 11.155 179.434 11.155 179.739C11.155 180.143 11.2495 180.521 11.4384 180.872C11.6306 181.223 11.8925 181.507 12.2239 181.722C12.5587 181.938 12.9382 182.045 13.3624 182.045ZM22.0391 183.139C21.29 183.139 20.652 182.935 20.125 182.528C19.598 182.117 19.1953 181.522 18.9169 180.743C18.6385 179.961 18.4993 179.016 18.4993 177.909C18.4993 176.809 18.6385 175.869 18.9169 175.09C19.1986 174.308 19.603 173.711 20.13 173.3C20.6603 172.886 21.2966 172.679 22.0391 172.679C22.7815 172.679 23.4162 172.886 23.9432 173.3C24.4735 173.711 24.8778 174.308 25.1562 175.09C25.438 175.869 25.5788 176.809 25.5788 177.909C25.5788 179.016 25.4396 179.961 25.1612 180.743C24.8828 181.522 24.4801 182.117 23.9531 182.528C23.4261 182.935 22.7881 183.139 22.0391 183.139ZM22.0391 182.045C22.7815 182.045 23.3582 181.687 23.7692 180.972C24.1802 180.256 24.3857 179.235 24.3857 177.909C24.3857 177.027 24.2912 176.277 24.1023 175.657C23.9167 175.037 23.6482 174.565 23.2969 174.24C22.9489 173.915 22.5296 173.753 22.0391 173.753C21.3033 173.753 20.7282 174.116 20.3139 174.842C19.8996 175.564 19.6925 176.587 19.6925 177.909C19.6925 178.791 19.7853 179.54 19.9709 180.156C20.1565 180.773 20.4233 181.242 20.7713 181.563C21.1226 181.885 21.5452 182.045 22.0391 182.045ZM30.7891 183.139C30.04 183.139 29.402 182.935 28.875 182.528C28.348 182.117 27.9453 181.522 27.6669 180.743C27.3885 179.961 27.2493 179.016 27.2493 177.909C27.2493 176.809 27.3885 175.869 27.6669 175.09C27.9486 174.308 28.353 173.711 28.88 173.3C29.4103 172.886 30.0466 172.679 30.7891 172.679C31.5315 172.679 32.1662 172.886 32.6932 173.3C33.2235 173.711 33.6278 174.308 33.9062 175.09C34.188 175.869 34.3288 176.809 34.3288 177.909C34.3288 179.016 34.1896 179.961 33.9112 180.743C33.6328 181.522 33.2301 182.117 32.7031 182.528C32.1761 182.935 31.5381 183.139 30.7891 183.139ZM30.7891 182.045C31.5315 182.045 32.1082 181.687 32.5192 180.972C32.9302 180.256 33.1357 179.235 33.1357 177.909C33.1357 177.027 33.0412 176.277 32.8523 175.657C32.6667 175.037 32.3982 174.565 32.0469 174.24C31.6989 173.915 31.2796 173.753 30.7891 173.753C30.0533 173.753 29.4782 174.116 29.0639 174.842C28.6496 175.564 28.4425 176.587 28.4425 177.909C28.4425 178.791 28.5353 179.54 28.7209 180.156C28.9065 180.773 29.1733 181.242 29.5213 181.563C29.8726 181.885 30.2952 182.045 30.7891 182.045Z" fill="#888E9E"/>
<path d="M4.05682 240.273V227.545H4.87216V240.273H4.05682ZM6.80114 231.364C6.74148 230.86 6.49953 230.469 6.07528 230.19C5.65104 229.912 5.13068 229.773 4.5142 229.773C4.06345 229.773 3.66903 229.846 3.33097 229.991C2.99621 230.137 2.73438 230.338 2.54545 230.593C2.35985 230.848 2.26705 231.138 2.26705 231.463C2.26705 231.735 2.33168 231.969 2.46094 232.164C2.59351 232.356 2.76255 232.517 2.96804 232.646C3.17353 232.772 3.38897 232.877 3.61435 232.96C3.83973 233.039 4.04688 233.104 4.2358 233.153L5.26989 233.432C5.53504 233.501 5.83002 233.598 6.15483 233.72C6.48295 233.843 6.79616 234.01 7.09446 234.222C7.39607 234.431 7.64465 234.7 7.8402 235.028C8.03575 235.356 8.13352 235.759 8.13352 236.236C8.13352 236.786 7.98935 237.283 7.70099 237.727C7.41596 238.171 6.99834 238.524 6.44815 238.786C5.90128 239.048 5.23674 239.179 4.45455 239.179C3.72538 239.179 3.09399 239.061 2.56037 238.826C2.03007 238.591 1.61245 238.263 1.30753 237.842C1.00592 237.421 0.835227 236.932 0.795455 236.375H2.06818C2.10133 236.759 2.23059 237.078 2.45597 237.33C2.68466 237.578 2.97301 237.764 3.32102 237.886C3.67235 238.006 4.05019 238.065 4.45455 238.065C4.92519 238.065 5.34777 237.989 5.7223 237.837C6.09683 237.681 6.39347 237.465 6.61222 237.19C6.83097 236.912 6.94034 236.587 6.94034 236.216C6.94034 235.878 6.84588 235.603 6.65696 235.391C6.46804 235.179 6.21946 235.006 5.91122 234.874C5.60298 234.741 5.26989 234.625 4.91193 234.526L3.65909 234.168C2.86364 233.939 2.2339 233.612 1.76989 233.188C1.30587 232.764 1.07386 232.209 1.07386 231.523C1.07386 230.953 1.22798 230.455 1.53622 230.031C1.84777 229.604 2.26539 229.272 2.78906 229.037C3.31605 228.798 3.90436 228.679 4.55398 228.679C5.21023 228.679 5.79356 228.797 6.30398 229.032C6.81439 229.264 7.21875 229.582 7.51705 229.987C7.81866 230.391 7.97775 230.85 7.99432 231.364H6.80114ZM13.1635 239.139C12.5802 239.139 12.0549 239.023 11.5875 238.791C11.1202 238.559 10.7457 238.241 10.464 237.837C10.1822 237.432 10.0281 236.972 10.0016 236.455H11.1948C11.2412 236.915 11.45 237.296 11.8212 237.598C12.1957 237.896 12.6432 238.045 13.1635 238.045C13.5811 238.045 13.9524 237.948 14.2772 237.752C14.6053 237.557 14.8622 237.288 15.0478 236.947C15.2367 236.602 15.3311 236.213 15.3311 235.778C15.3311 235.334 15.2334 234.938 15.0378 234.59C14.8456 234.239 14.5804 233.962 14.2424 233.76C13.9043 233.558 13.5182 233.455 13.084 233.452C12.7724 233.448 12.4526 233.496 12.1245 233.596C11.7963 233.692 11.5262 233.816 11.3141 233.969L10.1607 233.83L10.7772 228.818H16.0669V229.912H11.8113L11.4533 232.915H11.513C11.7218 232.749 11.9836 232.612 12.2985 232.502C12.6133 232.393 12.9415 232.338 13.2828 232.338C13.906 232.338 14.4611 232.487 14.9483 232.786C15.4389 233.08 15.8233 233.485 16.1017 233.999C16.3835 234.512 16.5243 235.099 16.5243 235.759C16.5243 236.408 16.3785 236.988 16.0868 237.499C15.7985 238.006 15.4007 238.407 14.8936 238.702C14.3865 238.993 13.8098 239.139 13.1635 239.139ZM21.8203 239.139C21.0713 239.139 20.4332 238.935 19.9062 238.528C19.3793 238.117 18.9766 237.522 18.6982 236.743C18.4197 235.961 18.2805 235.016 18.2805 233.909C18.2805 232.809 18.4197 231.869 18.6982 231.09C18.9799 230.308 19.3842 229.711 19.9112 229.3C20.4415 228.886 21.0779 228.679 21.8203 228.679C22.5627 228.679 23.1974 228.886 23.7244 229.3C24.2547 229.711 24.6591 230.308 24.9375 231.09C25.2192 231.869 25.3601 232.809 25.3601 233.909C25.3601 235.016 25.2209 235.961 24.9425 236.743C24.6641 237.522 24.2614 238.117 23.7344 238.528C23.2074 238.935 22.5694 239.139 21.8203 239.139ZM21.8203 238.045C22.5627 238.045 23.1394 237.687 23.5504 236.972C23.9614 236.256 24.1669 235.235 24.1669 233.909C24.1669 233.027 24.0724 232.277 23.8835 231.657C23.6979 231.037 23.4295 230.565 23.0781 230.24C22.7301 229.915 22.3108 229.753 21.8203 229.753C21.0845 229.753 20.5095 230.116 20.0952 230.842C19.6809 231.564 19.4737 232.587 19.4737 233.909C19.4737 234.791 19.5665 235.54 19.7521 236.156C19.9377 236.773 20.2045 237.242 20.5526 237.563C20.9039 237.885 21.3265 238.045 21.8203 238.045ZM30.5703 239.139C29.8213 239.139 29.1832 238.935 28.6562 238.528C28.1293 238.117 27.7266 237.522 27.4482 236.743C27.1697 235.961 27.0305 235.016 27.0305 233.909C27.0305 232.809 27.1697 231.869 27.4482 231.09C27.7299 230.308 28.1342 229.711 28.6612 229.3C29.1915 228.886 29.8279 228.679 30.5703 228.679C31.3127 228.679 31.9474 228.886 32.4744 229.3C33.0047 229.711 33.4091 230.308 33.6875 231.09C33.9692 231.869 34.1101 232.809 34.1101 233.909C34.1101 235.016 33.9709 235.961 33.6925 236.743C33.4141 237.522 33.0114 238.117 32.4844 238.528C31.9574 238.935 31.3194 239.139 30.5703 239.139ZM30.5703 238.045C31.3127 238.045 31.8894 237.687 32.3004 236.972C32.7114 236.256 32.9169 235.235 32.9169 233.909C32.9169 233.027 32.8224 232.277 32.6335 231.657C32.4479 231.037 32.1795 230.565 31.8281 230.24C31.4801 229.915 31.0608 229.753 30.5703 229.753C29.8345 229.753 29.2595 230.116 28.8452 230.842C28.4309 231.564 28.2237 232.587 28.2237 233.909C28.2237 234.791 28.3165 235.54 28.5021 236.156C28.6877 236.773 28.9545 237.242 29.3026 237.563C29.6539 237.885 30.0765 238.045 30.5703 238.045Z" fill="#888E9E"/>
<rect x="48" y="9" width="1048" height="1" fill="#E2E4E9"/>
<rect x="48" y="65" width="1048" height="1" fill="#E2E4E9"/>
<rect x="48" y="121" width="1048" height="1" fill="#E2E4E9"/>
<rect x="48" y="177" width="1048" height="1" fill="#E2E4E9"/>
<rect x="48" y="233" width="1048" height="1" fill="#E2E4E9"/>
<g filter="url(#filter0_d_187_25168)">
<path d="M57 117.759H84.1572C84.3654 117.759 84.5684 117.694 84.7379 117.573L113.294 97.2041C113.728 96.8949 114.328 96.9797 114.659 97.397L139.847 129.17C140.306 129.749 141.213 129.647 141.533 128.981L163.735 82.6815C164.123 81.8734 165.296 81.9438 165.584 82.7925L191.828 160.105C192.153 161.063 193.532 160.988 193.751 160L216.526 57.3337C216.764 56.2613 218.306 56.3009 218.488 57.3841L241.284 192.665C241.472 193.782 243.079 193.775 243.258 192.657L268.963 32.0609C269.136 30.9764 270.678 30.924 270.925 31.9942L295.773 139.739C295.998 140.714 297.357 140.791 297.691 139.847L321.061 73.725C321.363 72.8681 322.56 72.8269 322.921 73.6609L343.831 121.947C344.122 122.618 345.011 122.761 345.496 122.214L371.116 93.3505C371.537 92.8761 372.287 92.9085 372.666 93.4174L389.95 116.652C390.139 116.906 390.436 117.055 390.752 117.055H462.502C462.708 117.055 462.908 116.992 463.077 116.874L488.108 99.3093C488.544 99.0032 489.143 99.093 489.471 99.5134L512.638 129.258C513.073 129.816 513.934 129.759 514.29 129.148L541.985 81.7377C542.425 80.9852 543.549 81.116 543.805 81.9493L568.04 161.093C568.344 162.087 569.775 162.014 569.977 160.994L591.358 52.9422C591.575 51.8455 593.155 51.8772 593.327 52.9817L616.18 199.036C616.355 200.153 617.959 200.167 618.153 199.053L647.183 33.0274C647.374 31.9347 648.937 31.9193 649.149 33.008L669.269 136.059C669.463 137.052 670.84 137.162 671.189 136.213L694.548 72.7136C694.846 71.9033 695.962 71.8262 696.369 72.5877L722.755 121.992C723.101 122.64 724.004 122.707 724.441 122.116L746.829 91.869C747.169 91.4092 747.825 91.328 748.267 91.691L778.882 116.828C779.061 116.975 779.286 117.055 779.517 117.055H883.068C883.303 117.055 883.53 116.973 883.71 116.822L904.551 99.3673C904.956 99.0277 905.556 99.0626 905.92 99.4468L928.368 123.183C928.809 123.648 929.567 123.586 929.925 123.054L959.735 78.7315C960.209 78.0268 961.291 78.1965 961.526 79.0125L985.301 161.45C985.582 162.423 986.965 162.411 987.228 161.433L1015.38 56.8185C1015.66 55.7785 1017.16 55.8552 1017.34 56.9184L1039.53 193.798C1039.71 194.923 1041.33 194.916 1041.5 193.789L1064.22 44.7442C1064.39 43.6118 1066.02 43.6118 1066.19 44.7442L1080 135.348" stroke="#6438F5" stroke-width="2"/>
</g>
<g filter="url(#filter1_d_187_25168)">
<path fill-rule="evenodd" clip-rule="evenodd" d="M471 51C466.582 51 463 54.5817 463 59V99C463 103.418 466.582 107 471 107H507.649L512.268 115C513.038 116.333 514.962 116.333 515.732 115L520.351 107H557C561.418 107 565 103.418 565 99V59C565 54.5817 561.418 51 557 51H471Z" fill="white"/>
</g>
<path d="M479.398 63.2727H480.455V69.5114C480.455 70.0682 480.352 70.5412 480.148 70.9304C479.943 71.3196 479.655 71.6151 479.283 71.8168C478.911 72.0185 478.472 72.1193 477.966 72.1193C477.489 72.1193 477.064 72.0327 476.692 71.8594C476.32 71.6832 476.027 71.4332 475.814 71.1094C475.601 70.7855 475.494 70.4006 475.494 69.9545H476.534C476.534 70.2017 476.595 70.4176 476.717 70.6023C476.842 70.7841 477.013 70.9261 477.229 71.0284C477.445 71.1307 477.69 71.1818 477.966 71.1818C478.27 71.1818 478.528 71.1179 478.741 70.9901C478.955 70.8622 479.116 70.6747 479.227 70.4276C479.341 70.1776 479.398 69.8722 479.398 69.5114V63.2727ZM486.561 69.3239V65.4545H487.567V72H486.561V70.892H486.493C486.339 71.2244 486.101 71.5071 485.777 71.7401C485.453 71.9702 485.044 72.0852 484.55 72.0852C484.141 72.0852 483.777 71.9957 483.459 71.8168C483.141 71.6349 482.891 71.3622 482.709 70.9986C482.527 70.6321 482.436 70.1705 482.436 69.6136V65.4545H483.442V69.5455C483.442 70.0227 483.575 70.4034 483.842 70.6875C484.112 70.9716 484.456 71.1136 484.874 71.1136C485.124 71.1136 485.378 71.0497 485.636 70.9219C485.898 70.794 486.116 70.598 486.293 70.3338C486.472 70.0696 486.561 69.733 486.561 69.3239ZM490.414 68.0625V72H489.409V65.4545H490.38V66.4773H490.466C490.619 66.1449 490.852 65.8778 491.164 65.6761C491.477 65.4716 491.88 65.3693 492.375 65.3693C492.818 65.3693 493.206 65.4602 493.538 65.642C493.87 65.821 494.129 66.0938 494.314 66.4602C494.498 66.8239 494.591 67.2841 494.591 67.8409V72H493.585V67.9091C493.585 67.3949 493.451 66.9943 493.184 66.7074C492.917 66.4176 492.551 66.2727 492.085 66.2727C491.764 66.2727 491.477 66.3423 491.224 66.4815C490.974 66.6207 490.777 66.8239 490.632 67.0909C490.487 67.358 490.414 67.6818 490.414 68.0625ZM502.633 72.1193C501.991 72.1193 501.444 71.9446 500.992 71.5952C500.54 71.2429 500.195 70.733 499.957 70.0653C499.718 69.3949 499.599 68.5852 499.599 67.6364C499.599 66.6932 499.718 65.8878 499.957 65.2202C500.198 64.5497 500.545 64.0384 500.996 63.6861C501.451 63.331 501.996 63.1534 502.633 63.1534C503.269 63.1534 503.813 63.331 504.265 63.6861C504.719 64.0384 505.066 64.5497 505.305 65.2202C505.546 65.8878 505.667 66.6932 505.667 67.6364C505.667 68.5852 505.548 69.3949 505.309 70.0653C505.07 70.733 504.725 71.2429 504.273 71.5952C503.822 71.9446 503.275 72.1193 502.633 72.1193ZM502.633 71.1818C503.269 71.1818 503.763 70.875 504.116 70.2614C504.468 69.6477 504.644 68.7727 504.644 67.6364C504.644 66.8807 504.563 66.2372 504.401 65.706C504.242 65.1747 504.012 64.7699 503.711 64.4915C503.413 64.2131 503.053 64.0739 502.633 64.0739C502.002 64.0739 501.509 64.3849 501.154 65.0071C500.799 65.6264 500.621 66.5028 500.621 67.6364C500.621 68.392 500.701 69.0341 500.86 69.5625C501.019 70.0909 501.248 70.4929 501.546 70.7685C501.847 71.044 502.21 71.1818 502.633 71.1818ZM510.082 72.1193C509.496 72.1193 508.979 72.0156 508.531 71.8082C508.085 71.598 507.737 71.3097 507.487 70.9432C507.237 70.5739 507.113 70.1534 507.116 69.6818C507.113 69.3125 507.185 68.9716 507.333 68.6591C507.481 68.3437 507.683 68.081 507.938 67.8707C508.197 67.6577 508.485 67.5227 508.803 67.4659V67.4148C508.386 67.3068 508.053 67.0724 507.806 66.7116C507.559 66.348 507.437 65.9347 507.44 65.4716C507.437 65.0284 507.549 64.6321 507.776 64.2827C508.004 63.9332 508.316 63.6577 508.714 63.456C509.114 63.2543 509.57 63.1534 510.082 63.1534C510.587 63.1534 511.039 63.2543 511.437 63.456C511.835 63.6577 512.147 63.9332 512.374 64.2827C512.604 64.6321 512.721 65.0284 512.724 65.4716C512.721 65.9347 512.594 66.348 512.344 66.7116C512.097 67.0724 511.769 67.3068 511.36 67.4148V67.4659C511.675 67.5227 511.96 67.6577 512.212 67.8707C512.465 68.081 512.667 68.3437 512.817 68.6591C512.968 68.9716 513.045 69.3125 513.048 69.6818C513.045 70.1534 512.917 70.5739 512.664 70.9432C512.414 71.3097 512.066 71.598 511.62 71.8082C511.177 72.0156 510.664 72.1193 510.082 72.1193ZM510.082 71.1818C510.477 71.1818 510.817 71.1179 511.104 70.9901C511.391 70.8622 511.613 70.6818 511.769 70.4489C511.925 70.2159 512.005 69.9432 512.008 69.6307C512.005 69.3011 511.92 69.0099 511.752 68.7571C511.585 68.5043 511.356 68.3054 511.066 68.1605C510.779 68.0156 510.451 67.9432 510.082 67.9432C509.71 67.9432 509.377 68.0156 509.085 68.1605C508.795 68.3054 508.566 68.5043 508.398 68.7571C508.234 69.0099 508.153 69.3011 508.156 69.6307C508.153 69.9432 508.228 70.2159 508.381 70.4489C508.538 70.6818 508.761 70.8622 509.05 70.9901C509.34 71.1179 509.684 71.1818 510.082 71.1818ZM510.082 67.0398C510.394 67.0398 510.671 66.9773 510.913 66.8523C511.157 66.7273 511.349 66.5526 511.488 66.3281C511.627 66.1037 511.698 65.8409 511.701 65.5398C511.698 65.2443 511.629 64.9872 511.492 64.7685C511.356 64.5469 511.167 64.3764 510.925 64.2571C510.684 64.1349 510.403 64.0739 510.082 64.0739C509.755 64.0739 509.469 64.1349 509.225 64.2571C508.981 64.3764 508.792 64.5469 508.658 64.7685C508.525 64.9872 508.46 65.2443 508.462 65.5398C508.46 65.8409 508.526 66.1037 508.663 66.3281C508.802 66.5526 508.994 66.7273 509.238 66.8523C509.482 66.9773 509.763 67.0398 510.082 67.0398ZM515.928 70.8068L515.86 71.267C515.812 71.5909 515.738 71.9375 515.638 72.3068C515.542 72.6761 515.441 73.0241 515.336 73.3509C515.231 73.6776 515.144 73.9375 515.076 74.1307H514.309C514.346 73.9489 514.394 73.7088 514.454 73.4105C514.513 73.1122 514.573 72.7784 514.633 72.4091C514.695 72.0426 514.746 71.6676 514.786 71.2841L514.837 70.8068H515.928ZM521.15 72V71.233L524.03 68.0795C524.368 67.7102 524.647 67.3892 524.865 67.1165C525.084 66.8409 525.246 66.5824 525.351 66.3409C525.459 66.0966 525.513 65.8409 525.513 65.5739C525.513 65.267 525.439 65.0014 525.292 64.777C525.147 64.5526 524.948 64.3793 524.695 64.2571C524.442 64.1349 524.158 64.0739 523.843 64.0739C523.507 64.0739 523.215 64.1435 522.965 64.2827C522.718 64.419 522.526 64.6108 522.39 64.858C522.256 65.1051 522.189 65.3949 522.189 65.7273H521.184C521.184 65.2159 521.301 64.767 521.537 64.3807C521.773 63.9943 522.094 63.6932 522.5 63.4773C522.909 63.2614 523.368 63.1534 523.877 63.1534C524.388 63.1534 524.841 63.2614 525.236 63.4773C525.631 63.6932 525.941 63.9844 526.165 64.3509C526.39 64.7173 526.502 65.125 526.502 65.5739C526.502 65.8949 526.444 66.2088 526.327 66.5156C526.213 66.8196 526.015 67.1591 525.73 67.5341C525.449 67.9062 525.059 68.3608 524.559 68.8977L522.598 70.9943V71.0625H526.655V72H521.15ZM531.262 72.1193C530.62 72.1193 530.073 71.9446 529.621 71.5952C529.169 71.2429 528.824 70.733 528.586 70.0653C528.347 69.3949 528.228 68.5852 528.228 67.6364C528.228 66.6932 528.347 65.8878 528.586 65.2202C528.827 64.5497 529.174 64.0384 529.625 63.6861C530.08 63.331 530.625 63.1534 531.262 63.1534C531.898 63.1534 532.442 63.331 532.894 63.6861C533.348 64.0384 533.695 64.5497 533.934 65.2202C534.175 65.8878 534.296 66.6932 534.296 67.6364C534.296 68.5852 534.176 69.3949 533.938 70.0653C533.699 70.733 533.354 71.2429 532.902 71.5952C532.451 71.9446 531.904 72.1193 531.262 72.1193ZM531.262 71.1818C531.898 71.1818 532.392 70.875 532.745 70.2614C533.097 69.6477 533.273 68.7727 533.273 67.6364C533.273 66.8807 533.192 66.2372 533.03 65.706C532.871 65.1747 532.641 64.7699 532.34 64.4915C532.042 64.2131 531.682 64.0739 531.262 64.0739C530.631 64.0739 530.138 64.3849 529.783 65.0071C529.428 65.6264 529.25 66.5028 529.25 67.6364C529.25 68.392 529.33 69.0341 529.489 69.5625C529.648 70.0909 529.877 70.4929 530.175 70.7685C530.476 71.044 530.838 71.1818 531.262 71.1818ZM535.915 72V71.233L538.796 68.0795C539.134 67.7102 539.412 67.3892 539.631 67.1165C539.85 66.8409 540.012 66.5824 540.117 66.3409C540.225 66.0966 540.279 65.8409 540.279 65.5739C540.279 65.267 540.205 65.0014 540.057 64.777C539.912 64.5526 539.713 64.3793 539.461 64.2571C539.208 64.1349 538.924 64.0739 538.608 64.0739C538.273 64.0739 537.98 64.1435 537.73 64.2827C537.483 64.419 537.292 64.6108 537.155 64.858C537.022 65.1051 536.955 65.3949 536.955 65.7273H535.949C535.949 65.2159 536.067 64.767 536.303 64.3807C536.539 63.9943 536.86 63.6932 537.266 63.4773C537.675 63.2614 538.134 63.1534 538.642 63.1534C539.154 63.1534 539.607 63.2614 540.002 63.4773C540.397 63.6932 540.706 63.9844 540.931 64.3509C541.155 64.7173 541.267 65.125 541.267 65.5739C541.267 65.8949 541.209 66.2088 541.093 66.5156C540.979 66.8196 540.78 67.1591 540.496 67.5341C540.215 67.9062 539.824 68.3608 539.324 68.8977L537.364 70.9943V71.0625H541.421V72H535.915ZM542.789 70.2102V69.3409L546.624 63.2727H547.255V64.6193H546.828L543.931 69.2045V69.2727H549.096V70.2102H542.789ZM546.897 72V69.946V69.5412V63.2727H547.902V72H546.897Z" fill="#888E9E"/>
<path d="M479.121 95.2727V82.5455H479.937V95.2727H479.121ZM481.672 86.4929C481.619 86.0223 481.4 85.6577 481.016 85.3991C480.631 85.1373 480.147 85.0064 479.564 85.0064C479.146 85.0064 478.785 85.0727 478.48 85.2053C478.175 85.3345 477.938 85.5135 477.769 85.7422C477.603 85.9676 477.521 86.2244 477.521 86.5128C477.521 86.7547 477.577 86.9635 477.69 87.1392C477.806 87.3149 477.956 87.4624 478.142 87.5817C478.331 87.6977 478.533 87.7955 478.749 87.875C478.964 87.9512 479.171 88.0142 479.37 88.0639L480.364 88.3224C480.689 88.402 481.022 88.5097 481.364 88.6456C481.705 88.7815 482.022 88.9605 482.313 89.1825C482.605 89.4046 482.84 89.6797 483.019 90.0078C483.201 90.3359 483.293 90.7287 483.293 91.1861C483.293 91.7628 483.143 92.2749 482.845 92.7223C482.55 93.1697 482.121 93.5227 481.558 93.7812C480.997 94.0398 480.32 94.169 479.524 94.169C478.762 94.169 478.102 94.0481 477.545 93.8061C476.989 93.5642 476.553 93.2211 476.238 92.777C475.923 92.3295 475.749 91.7992 475.716 91.1861H477.257C477.287 91.554 477.406 91.8606 477.615 92.1058C477.827 92.3478 478.097 92.5284 478.425 92.6477C478.757 92.7637 479.12 92.8217 479.514 92.8217C479.948 92.8217 480.335 92.7538 480.673 92.6179C481.014 92.4787 481.282 92.2865 481.478 92.0412C481.674 91.7926 481.771 91.5026 481.771 91.1712C481.771 90.8696 481.685 90.6226 481.513 90.4304C481.344 90.2382 481.113 90.0791 480.822 89.9531C480.533 89.8272 480.207 89.7161 479.842 89.62L478.639 89.2919C477.824 89.0698 477.178 88.7434 476.7 88.3125C476.226 87.8816 475.989 87.3116 475.989 86.6023C475.989 86.0156 476.148 85.5036 476.467 85.0661C476.785 84.6286 477.216 84.2888 477.759 84.0469C478.303 83.8016 478.916 83.679 479.599 83.679C480.288 83.679 480.896 83.8 481.423 84.0419C481.954 84.2839 482.371 84.617 482.676 85.0412C482.981 85.4621 483.14 85.946 483.153 86.4929H481.672ZM488.35 94.1392C487.727 94.1392 487.167 94.0199 486.67 93.7812C486.176 93.5393 485.781 93.2079 485.486 92.7869C485.191 92.366 485.034 91.8854 485.014 91.3452H486.506C486.542 91.7827 486.736 92.1423 487.087 92.424C487.439 92.7057 487.859 92.8466 488.35 92.8466C488.741 92.8466 489.087 92.7571 489.389 92.5781C489.694 92.3958 489.933 92.1456 490.105 91.8274C490.281 91.5092 490.368 91.1463 490.368 90.7386C490.368 90.3243 490.279 89.9548 490.1 89.63C489.921 89.3052 489.674 89.05 489.359 88.8643C489.048 88.6787 488.69 88.5843 488.285 88.581C487.977 88.581 487.667 88.634 487.356 88.7401C487.044 88.8461 486.792 88.9853 486.6 89.1577L485.193 88.9489L485.765 83.8182H491.363V85.1357H487.042L486.719 87.9844H486.779C486.978 87.7921 487.241 87.6314 487.569 87.5021C487.901 87.3729 488.256 87.3082 488.633 87.3082C489.253 87.3082 489.805 87.4557 490.289 87.7507C490.776 88.0457 491.159 88.4484 491.437 88.9588C491.719 89.4659 491.858 90.0492 491.855 90.7088C491.858 91.3684 491.709 91.9567 491.407 92.4737C491.109 92.9908 490.695 93.3984 490.165 93.6967C489.638 93.9917 489.033 94.1392 488.35 94.1392ZM493.457 92.0114V90.7685L497.857 83.8182H498.836V85.6477H498.215L495.068 90.6293V90.7088H501.098V92.0114H493.457ZM498.284 94V91.6335L498.294 91.0668V83.8182H499.751V94H498.284ZM504.402 92.608L504.327 93.1499C504.278 93.5476 504.193 93.9619 504.074 94.3928C503.958 94.8269 503.837 95.2296 503.711 95.6009C503.588 95.9721 503.487 96.267 503.408 96.4858H502.354C502.397 96.2803 502.456 96.0019 502.533 95.6506C502.609 95.3026 502.683 94.9131 502.756 94.4822C502.829 94.0514 502.884 93.6122 502.92 93.1648L502.97 92.608H504.402ZM506.565 94L511.009 85.2102V85.1357H505.869V83.8182H512.6V85.1804L508.17 94H506.565ZM517.553 94.1392C516.93 94.1392 516.37 94.0199 515.873 93.7812C515.379 93.5393 514.984 93.2079 514.689 92.7869C514.394 92.366 514.237 91.8854 514.217 91.3452H515.709C515.745 91.7827 515.939 92.1423 516.29 92.424C516.642 92.7057 517.063 92.8466 517.553 92.8466C517.944 92.8466 518.291 92.7571 518.592 92.5781C518.897 92.3958 519.136 92.1456 519.308 91.8274C519.484 91.5092 519.572 91.1463 519.572 90.7386C519.572 90.3243 519.482 89.9548 519.303 89.63C519.124 89.3052 518.877 89.05 518.562 88.8643C518.251 88.6787 517.893 88.5843 517.488 88.581C517.18 88.581 516.87 88.634 516.559 88.7401C516.247 88.8461 515.995 88.9853 515.803 89.1577L514.396 88.9489L514.968 83.8182H520.566V85.1357H516.246L515.922 87.9844H515.982C516.181 87.7921 516.444 87.6314 516.773 87.5021C517.104 87.3729 517.459 87.3082 517.836 87.3082C518.456 87.3082 519.008 87.4557 519.492 87.7507C519.979 88.0457 520.362 88.4484 520.64 88.9588C520.922 89.4659 521.061 90.0492 521.058 90.7088C521.061 91.3684 520.912 91.9567 520.611 92.4737C520.312 92.9908 519.898 93.3984 519.368 93.6967C518.841 93.9917 518.236 94.1392 517.553 94.1392ZM526.429 94.1392C525.975 94.1326 525.527 94.0497 525.086 93.8906C524.649 93.7315 524.251 93.4664 523.893 93.0952C523.535 92.724 523.248 92.2251 523.033 91.5987C522.821 90.9723 522.715 90.1901 522.715 89.2521C522.715 88.3639 522.803 87.575 522.978 86.8857C523.157 86.1963 523.414 85.6146 523.749 85.1406C524.084 84.6634 524.488 84.3004 524.962 84.0518C525.436 83.8033 525.968 83.679 526.558 83.679C527.164 83.679 527.703 83.7983 528.174 84.0369C528.644 84.2756 529.025 84.6054 529.317 85.0263C529.612 85.4472 529.799 85.9261 529.879 86.4631H528.363C528.26 86.0388 528.056 85.6925 527.751 85.424C527.446 85.1555 527.048 85.0213 526.558 85.0213C525.812 85.0213 525.23 85.3461 524.813 85.9957C524.399 86.6454 524.19 87.5485 524.186 88.7053H524.261C524.437 88.4169 524.652 88.1716 524.907 87.9695C525.166 87.764 525.454 87.6065 525.772 87.4972C526.094 87.3845 526.432 87.3281 526.787 87.3281C527.377 87.3281 527.91 87.4723 528.387 87.7607C528.868 88.0457 529.251 88.4401 529.536 88.9439C529.821 89.4477 529.963 90.0244 529.963 90.674C529.963 91.3236 529.816 91.9119 529.521 92.4389C529.229 92.9659 528.818 93.3835 528.288 93.6918C527.758 93.9967 527.138 94.1458 526.429 94.1392ZM526.424 92.8466C526.815 92.8466 527.164 92.7505 527.473 92.5582C527.781 92.366 528.025 92.1075 528.203 91.7827C528.382 91.4579 528.472 91.0949 528.472 90.6939C528.472 90.3028 528.384 89.9465 528.208 89.625C528.036 89.3035 527.797 89.0483 527.493 88.8594C527.191 88.6705 526.846 88.576 526.458 88.576C526.163 88.576 525.89 88.6323 525.638 88.745C525.39 88.8577 525.171 89.0135 524.982 89.2124C524.793 89.4112 524.644 89.6399 524.534 89.8984C524.428 90.1536 524.375 90.4238 524.375 90.7088C524.375 91.09 524.463 91.4429 524.639 91.7678C524.818 92.0926 525.061 92.3544 525.37 92.5533C525.681 92.7488 526.033 92.8466 526.424 92.8466ZM532.309 94.0945C532.037 94.0945 531.803 93.9983 531.608 93.8061C531.412 93.6106 531.314 93.3752 531.314 93.1001C531.314 92.8284 531.412 92.5964 531.608 92.4041C531.803 92.2086 532.037 92.1108 532.309 92.1108C532.581 92.1108 532.814 92.2086 533.01 92.4041C533.205 92.5964 533.303 92.8284 533.303 93.1001C533.303 93.2824 533.257 93.4498 533.164 93.6023C533.074 93.7514 532.955 93.8707 532.806 93.9602C532.657 94.0497 532.491 94.0945 532.309 94.0945ZM538.537 83.679C538.991 83.6823 539.438 83.7652 539.879 83.9276C540.32 84.09 540.718 84.3551 541.072 84.723C541.43 85.0909 541.715 85.5881 541.928 86.2145C542.143 86.8376 542.252 87.6132 542.256 88.5412C542.256 89.4328 542.166 90.2266 541.987 90.9226C541.808 91.6153 541.551 92.2003 541.217 92.6776C540.885 93.1548 540.482 93.5178 540.009 93.7663C539.535 94.0149 539.001 94.1392 538.408 94.1392C537.801 94.1392 537.263 94.0199 536.792 93.7812C536.321 93.5426 535.938 93.2128 535.643 92.7919C535.348 92.3677 535.165 91.8804 535.092 91.3303H536.608C536.707 91.7678 536.91 92.1224 537.214 92.3942C537.523 92.6626 537.92 92.7969 538.408 92.7969C539.153 92.7969 539.735 92.4721 540.153 91.8224C540.57 91.1695 540.781 90.258 540.784 89.0881H540.705C540.532 89.3731 540.317 89.6184 540.058 89.8239C539.803 90.0294 539.516 90.1884 539.198 90.3011C538.88 90.4138 538.54 90.4702 538.179 90.4702C537.592 90.4702 537.059 90.326 536.578 90.0376C536.098 89.7493 535.715 89.3532 535.43 88.8494C535.145 88.3456 535.002 87.7706 535.002 87.1243C535.002 86.4813 535.148 85.898 535.44 85.3743C535.735 84.8506 536.146 84.4363 536.673 84.1314C537.203 83.8232 537.824 83.6723 538.537 83.679ZM538.542 84.9716C538.154 84.9716 537.804 85.0677 537.493 85.2599C537.185 85.4489 536.941 85.7057 536.762 86.0305C536.583 86.352 536.494 86.71 536.494 87.1044C536.494 87.4988 536.58 87.8568 536.752 88.1783C536.928 88.4964 537.166 88.75 537.468 88.9389C537.773 89.1245 538.121 89.2173 538.512 89.2173C538.804 89.2173 539.076 89.161 539.327 89.0483C539.579 88.9356 539.8 88.7798 539.989 88.581C540.178 88.3788 540.325 88.1501 540.431 87.8949C540.537 87.6397 540.59 87.3712 540.59 87.0895C540.59 86.715 540.501 86.367 540.322 86.0455C540.146 85.724 539.904 85.4654 539.596 85.2699C539.288 85.071 538.936 84.9716 538.542 84.9716ZM547.596 94.169C546.811 94.1657 546.14 93.9586 545.583 93.5476C545.026 93.1366 544.6 92.5384 544.305 91.7528C544.01 90.9673 543.863 90.0211 543.863 88.9141C543.863 87.8104 544.01 86.8674 544.305 86.0852C544.604 85.303 545.031 84.7064 545.588 84.2955C546.148 83.8845 546.818 83.679 547.596 83.679C548.375 83.679 549.043 83.8861 549.6 84.3004C550.157 84.7114 550.583 85.308 550.878 86.0902C551.176 86.8691 551.325 87.8104 551.325 88.9141C551.325 90.0244 551.178 90.9723 550.883 91.7578C550.588 92.54 550.162 93.1383 549.605 93.5526C549.048 93.9635 548.379 94.169 547.596 94.169ZM547.596 92.8416C548.286 92.8416 548.824 92.5052 549.212 91.8324C549.603 91.1596 549.799 90.1868 549.799 88.9141C549.799 88.0689 549.709 87.3546 549.53 86.7713C549.355 86.1847 549.101 85.7405 548.77 85.4389C548.442 85.134 548.05 84.9815 547.596 84.9815C546.91 84.9815 546.372 85.3196 545.981 85.9957C545.59 86.6719 545.392 87.6446 545.389 88.9141C545.389 89.7625 545.477 90.4801 545.653 91.0668C545.831 91.6501 546.085 92.0926 546.413 92.3942C546.741 92.6925 547.136 92.8416 547.596 92.8416Z" fill="#0F0F10"/>
<circle cx="514" cy="131" r="5" fill="#6438F5"/>
<rect x="513.5" y="138.5" width="1" height="95" stroke="url(#paint0_linear_187_25168)" stroke-dasharray="4 4"/>
<path d="M68.1307 251.818H69.3636V259.097C69.3636 259.746 69.2443 260.298 69.0057 260.752C68.767 261.206 68.4306 261.551 67.9964 261.786C67.5623 262.022 67.0502 262.139 66.4602 262.139C65.9034 262.139 65.4079 262.038 64.9737 261.836C64.5395 261.63 64.1982 261.339 63.9496 260.961C63.701 260.583 63.5767 260.134 63.5767 259.614H64.7898C64.7898 259.902 64.861 260.154 65.0036 260.369C65.1494 260.581 65.3482 260.747 65.6001 260.866C65.852 260.986 66.1387 261.045 66.4602 261.045C66.8149 261.045 67.1165 260.971 67.3651 260.822C67.6136 260.673 67.8026 260.454 67.9318 260.165C68.0644 259.874 68.1307 259.518 68.1307 259.097V251.818ZM73.9226 262.179C73.4387 262.179 72.9995 262.088 72.6051 261.906C72.2107 261.72 71.8975 261.453 71.6655 261.105C71.4335 260.754 71.3175 260.33 71.3175 259.832C71.3175 259.395 71.4036 259.04 71.576 258.768C71.7483 258.493 71.9787 258.278 72.267 258.122C72.5554 257.966 72.8736 257.85 73.2216 257.774C73.5729 257.695 73.9259 257.632 74.2805 257.585C74.7446 257.526 75.1207 257.481 75.4091 257.451C75.7008 257.418 75.9129 257.363 76.0455 257.287C76.1813 257.211 76.2493 257.078 76.2493 256.889V256.849C76.2493 256.359 76.1151 255.978 75.8466 255.706C75.5814 255.434 75.1787 255.298 74.6385 255.298C74.0784 255.298 73.6392 255.421 73.321 255.666C73.0028 255.911 72.7791 256.173 72.6499 256.452L71.5362 256.054C71.7351 255.59 72.0002 255.229 72.3317 254.97C72.6664 254.708 73.031 254.526 73.4254 254.423C73.8232 254.317 74.2143 254.264 74.5987 254.264C74.844 254.264 75.1257 254.294 75.4439 254.354C75.7654 254.41 76.0753 254.528 76.3736 254.707C76.6752 254.886 76.9254 255.156 77.1243 255.517C77.3232 255.878 77.4226 256.362 77.4226 256.969V262H76.2493V260.966H76.1896C76.1101 261.132 75.9775 261.309 75.7919 261.498C75.6063 261.687 75.3594 261.848 75.0511 261.98C74.7429 262.113 74.3667 262.179 73.9226 262.179ZM74.1016 261.125C74.5656 261.125 74.9567 261.034 75.2749 260.852C75.5964 260.669 75.8383 260.434 76.0007 260.146C76.1664 259.857 76.2493 259.554 76.2493 259.236V258.162C76.1996 258.222 76.0902 258.276 75.9212 258.326C75.7554 258.372 75.5632 258.414 75.3445 258.45C75.129 258.483 74.9186 258.513 74.7131 258.54C74.5109 258.563 74.3468 258.583 74.2209 258.599C73.916 258.639 73.6309 258.704 73.3658 258.793C73.1039 258.879 72.8918 259.01 72.7294 259.186C72.5703 259.358 72.4908 259.594 72.4908 259.892C72.4908 260.3 72.6416 260.608 72.9432 260.817C73.2481 261.022 73.6342 261.125 74.1016 261.125ZM80.7374 257.406V262H79.5641V254.364H80.6976V255.557H80.7971C80.976 255.169 81.2478 254.857 81.6124 254.622C81.977 254.384 82.4476 254.264 83.0243 254.264C83.5414 254.264 83.9938 254.37 84.3816 254.582C84.7694 254.791 85.071 255.109 85.2864 255.537C85.5018 255.961 85.6096 256.498 85.6096 257.148V262H84.4363V257.227C84.4363 256.627 84.2805 256.16 83.9689 255.825C83.6574 255.487 83.2298 255.318 82.6863 255.318C82.3117 255.318 81.977 255.399 81.682 255.562C81.3903 255.724 81.16 255.961 80.9909 256.273C80.8219 256.584 80.7374 256.962 80.7374 257.406Z" fill="#888E9E"/>
<path d="M153.233 262V251.818H159.338V252.912H154.466V256.352H158.881V257.446H154.466V262H153.233ZM163.932 262.159C163.196 262.159 162.561 261.997 162.028 261.672C161.497 261.344 161.088 260.886 160.8 260.3C160.515 259.71 160.372 259.024 160.372 258.241C160.372 257.459 160.515 256.77 160.8 256.173C161.088 255.573 161.489 255.106 162.003 254.771C162.52 254.433 163.123 254.264 163.812 254.264C164.21 254.264 164.603 254.33 164.991 254.463C165.379 254.596 165.732 254.811 166.05 255.109C166.368 255.404 166.621 255.795 166.81 256.283C166.999 256.77 167.094 257.37 167.094 258.082V258.58H161.207V257.565H165.901C165.901 257.134 165.814 256.75 165.642 256.412C165.473 256.074 165.231 255.807 164.916 255.612C164.605 255.416 164.237 255.318 163.812 255.318C163.345 255.318 162.941 255.434 162.599 255.666C162.261 255.895 162.001 256.193 161.819 256.561C161.637 256.929 161.545 257.323 161.545 257.744V258.42C161.545 258.997 161.645 259.486 161.844 259.887C162.046 260.285 162.326 260.588 162.684 260.797C163.042 261.002 163.458 261.105 163.932 261.105C164.24 261.105 164.518 261.062 164.767 260.976C165.019 260.886 165.236 260.754 165.418 260.578C165.601 260.399 165.741 260.177 165.841 259.912L166.974 260.23C166.855 260.615 166.655 260.953 166.373 261.244C166.091 261.533 165.743 261.758 165.329 261.92C164.915 262.08 164.449 262.159 163.932 262.159ZM169.038 262V251.818H170.211V255.577H170.31C170.397 255.444 170.516 255.275 170.668 255.07C170.824 254.861 171.046 254.675 171.335 254.513C171.626 254.347 172.021 254.264 172.518 254.264C173.161 254.264 173.728 254.425 174.218 254.746C174.709 255.068 175.091 255.524 175.366 256.114C175.642 256.704 175.779 257.4 175.779 258.202C175.779 259.01 175.642 259.711 175.366 260.305C175.091 260.895 174.71 261.352 174.223 261.677C173.736 261.998 173.174 262.159 172.538 262.159C172.047 262.159 171.654 262.078 171.359 261.915C171.064 261.75 170.837 261.562 170.678 261.354C170.519 261.142 170.397 260.966 170.31 260.827H170.171V262H169.038ZM170.191 258.182C170.191 258.759 170.276 259.267 170.445 259.708C170.614 260.146 170.861 260.489 171.185 260.737C171.51 260.982 171.908 261.105 172.379 261.105C172.869 261.105 173.278 260.976 173.607 260.717C173.938 260.455 174.187 260.104 174.352 259.663C174.521 259.219 174.606 258.725 174.606 258.182C174.606 257.645 174.523 257.161 174.357 256.73C174.195 256.296 173.948 255.953 173.616 255.701C173.288 255.446 172.876 255.318 172.379 255.318C171.901 255.318 171.5 255.439 171.175 255.681C170.851 255.92 170.605 256.254 170.44 256.685C170.274 257.113 170.191 257.612 170.191 258.182Z" fill="#888E9E"/>
<path d="M243.233 251.818H244.705L248.165 260.27H248.284L251.744 251.818H253.216V262H252.062V254.264H251.963L248.781 262H247.668L244.486 254.264H244.386V262H243.233V251.818ZM257.776 262.179C257.292 262.179 256.853 262.088 256.459 261.906C256.064 261.72 255.751 261.453 255.519 261.105C255.287 260.754 255.171 260.33 255.171 259.832C255.171 259.395 255.257 259.04 255.43 258.768C255.602 258.493 255.832 258.278 256.121 258.122C256.409 257.966 256.727 257.85 257.075 257.774C257.426 257.695 257.779 257.632 258.134 257.585C258.598 257.526 258.974 257.481 259.263 257.451C259.554 257.418 259.766 257.363 259.899 257.287C260.035 257.211 260.103 257.078 260.103 256.889V256.849C260.103 256.359 259.969 255.978 259.7 255.706C259.435 255.434 259.032 255.298 258.492 255.298C257.932 255.298 257.493 255.421 257.175 255.666C256.856 255.911 256.633 256.173 256.503 256.452L255.39 256.054C255.589 255.59 255.854 255.229 256.185 254.97C256.52 254.708 256.885 254.526 257.279 254.423C257.677 254.317 258.068 254.264 258.452 254.264C258.698 254.264 258.979 254.294 259.297 254.354C259.619 254.41 259.929 254.528 260.227 254.707C260.529 254.886 260.779 255.156 260.978 255.517C261.177 255.878 261.276 256.362 261.276 256.969V262H260.103V260.966H260.043C259.964 261.132 259.831 261.309 259.645 261.498C259.46 261.687 259.213 261.848 258.905 261.98C258.596 262.113 258.22 262.179 257.776 262.179ZM257.955 261.125C258.419 261.125 258.81 261.034 259.128 260.852C259.45 260.669 259.692 260.434 259.854 260.146C260.02 259.857 260.103 259.554 260.103 259.236V258.162C260.053 258.222 259.944 258.276 259.775 258.326C259.609 258.372 259.417 258.414 259.198 258.45C258.983 258.483 258.772 258.513 258.567 258.54C258.364 258.563 258.2 258.583 258.074 258.599C257.769 258.639 257.484 258.704 257.219 258.793C256.957 258.879 256.745 259.01 256.583 259.186C256.424 259.358 256.344 259.594 256.344 259.892C256.344 260.3 256.495 260.608 256.797 260.817C257.102 261.022 257.488 261.125 257.955 261.125ZM263.418 262V254.364H264.551V255.517H264.631C264.77 255.139 265.022 254.833 265.386 254.597C265.751 254.362 266.162 254.244 266.619 254.244C266.705 254.244 266.813 254.246 266.942 254.249C267.072 254.253 267.17 254.258 267.236 254.264V255.457C267.196 255.447 267.105 255.433 266.962 255.413C266.823 255.389 266.676 255.378 266.52 255.378C266.149 255.378 265.817 255.456 265.526 255.612C265.237 255.764 265.009 255.976 264.839 256.248C264.674 256.516 264.591 256.823 264.591 257.168V262H263.418Z" fill="#888E9E"/>
<path d="M334.651 262H333.358L337.097 251.818H338.369L342.108 262H340.815L337.773 253.429H337.693L334.651 262ZM335.128 258.023H340.338V259.116H335.128V258.023ZM343.535 264.864V254.364H344.668V255.577H344.808C344.894 255.444 345.013 255.275 345.165 255.07C345.321 254.861 345.543 254.675 345.832 254.513C346.123 254.347 346.518 254.264 347.015 254.264C347.658 254.264 348.225 254.425 348.715 254.746C349.206 255.068 349.589 255.524 349.864 256.114C350.139 256.704 350.276 257.4 350.276 258.202C350.276 259.01 350.139 259.711 349.864 260.305C349.589 260.895 349.207 261.352 348.72 261.677C348.233 261.998 347.671 262.159 347.035 262.159C346.544 262.159 346.152 262.078 345.857 261.915C345.562 261.75 345.335 261.562 345.175 261.354C345.016 261.142 344.894 260.966 344.808 260.827H344.708V264.864H343.535ZM344.688 258.182C344.688 258.759 344.773 259.267 344.942 259.708C345.111 260.146 345.358 260.489 345.683 260.737C346.007 260.982 346.405 261.105 346.876 261.105C347.366 261.105 347.776 260.976 348.104 260.717C348.435 260.455 348.684 260.104 348.849 259.663C349.018 259.219 349.103 258.725 349.103 258.182C349.103 257.645 349.02 257.161 348.854 256.73C348.692 256.296 348.445 255.953 348.114 255.701C347.786 255.446 347.373 255.318 346.876 255.318C346.398 255.318 345.997 255.439 345.673 255.681C345.348 255.92 345.103 256.254 344.937 256.685C344.771 257.113 344.688 257.612 344.688 258.182ZM352.066 262V254.364H353.2V255.517H353.279C353.418 255.139 353.67 254.833 354.035 254.597C354.399 254.362 354.81 254.244 355.268 254.244C355.354 254.244 355.462 254.246 355.591 254.249C355.72 254.253 355.818 254.258 355.884 254.264V255.457C355.844 255.447 355.753 255.433 355.611 255.413C355.472 255.389 355.324 255.378 355.168 255.378C354.797 255.378 354.466 255.456 354.174 255.612C353.886 255.764 353.657 255.976 353.488 256.248C353.322 256.516 353.239 256.823 353.239 257.168V262H352.066Z" fill="#888E9E"/>
<path d="M423.233 251.818H424.705L428.165 260.27H428.284L431.744 251.818H433.216V262H432.062V254.264H431.963L428.781 262H427.668L424.486 254.264H424.386V262H423.233V251.818ZM437.776 262.179C437.292 262.179 436.853 262.088 436.459 261.906C436.064 261.72 435.751 261.453 435.519 261.105C435.287 260.754 435.171 260.33 435.171 259.832C435.171 259.395 435.257 259.04 435.43 258.768C435.602 258.493 435.832 258.278 436.121 258.122C436.409 257.966 436.727 257.85 437.075 257.774C437.426 257.695 437.779 257.632 438.134 257.585C438.598 257.526 438.974 257.481 439.263 257.451C439.554 257.418 439.766 257.363 439.899 257.287C440.035 257.211 440.103 257.078 440.103 256.889V256.849C440.103 256.359 439.969 255.978 439.7 255.706C439.435 255.434 439.032 255.298 438.492 255.298C437.932 255.298 437.493 255.421 437.175 255.666C436.856 255.911 436.633 256.173 436.503 256.452L435.39 256.054C435.589 255.59 435.854 255.229 436.185 254.97C436.52 254.708 436.885 254.526 437.279 254.423C437.677 254.317 438.068 254.264 438.452 254.264C438.698 254.264 438.979 254.294 439.297 254.354C439.619 254.41 439.929 254.528 440.227 254.707C440.529 254.886 440.779 255.156 440.978 255.517C441.177 255.878 441.276 256.362 441.276 256.969V262H440.103V260.966H440.043C439.964 261.132 439.831 261.309 439.645 261.498C439.46 261.687 439.213 261.848 438.905 261.98C438.596 262.113 438.22 262.179 437.776 262.179ZM437.955 261.125C438.419 261.125 438.81 261.034 439.128 260.852C439.45 260.669 439.692 260.434 439.854 260.146C440.02 259.857 440.103 259.554 440.103 259.236V258.162C440.053 258.222 439.944 258.276 439.775 258.326C439.609 258.372 439.417 258.414 439.198 258.45C438.983 258.483 438.772 258.513 438.567 258.54C438.364 258.563 438.2 258.583 438.074 258.599C437.769 258.639 437.484 258.704 437.219 258.793C436.957 258.879 436.745 259.01 436.583 259.186C436.424 259.358 436.344 259.594 436.344 259.892C436.344 260.3 436.495 260.608 436.797 260.817C437.102 261.022 437.488 261.125 437.955 261.125ZM443.9 264.864C443.701 264.864 443.524 264.847 443.368 264.814C443.212 264.784 443.104 264.754 443.045 264.724L443.343 263.69C443.628 263.763 443.88 263.79 444.099 263.77C444.317 263.75 444.511 263.652 444.68 263.477C444.853 263.304 445.01 263.024 445.153 262.636L445.371 262.04L442.548 254.364H443.82L445.928 260.449H446.008L448.116 254.364H449.388L446.147 263.114C446.001 263.508 445.821 263.835 445.605 264.093C445.39 264.355 445.139 264.549 444.854 264.675C444.573 264.801 444.254 264.864 443.9 264.864Z" fill="#888E9E"/>
<path d="M520.076 251.818H521.607V259.037C521.607 259.69 521.478 260.248 521.219 260.712C520.964 261.176 520.605 261.531 520.141 261.776C519.677 262.018 519.133 262.139 518.51 262.139C517.937 262.139 517.421 262.035 516.964 261.826C516.51 261.617 516.15 261.314 515.885 260.916C515.623 260.515 515.492 260.028 515.492 259.455H517.018C517.018 259.736 517.083 259.98 517.212 260.185C517.345 260.391 517.526 260.552 517.754 260.668C517.986 260.78 518.251 260.837 518.55 260.837C518.875 260.837 519.15 260.769 519.375 260.633C519.604 260.494 519.778 260.29 519.897 260.021C520.016 259.753 520.076 259.425 520.076 259.037V251.818ZM528.561 258.833V254.364H530.053V262H528.591V260.678H528.512C528.336 261.085 528.054 261.425 527.666 261.697C527.282 261.965 526.803 262.099 526.23 262.099C525.739 262.099 525.305 261.992 524.927 261.776C524.552 261.558 524.258 261.234 524.042 260.807C523.83 260.379 523.724 259.851 523.724 259.221V254.364H525.21V259.042C525.21 259.562 525.355 259.977 525.643 260.285C525.931 260.593 526.306 260.747 526.767 260.747C527.045 260.747 527.322 260.678 527.597 260.538C527.875 260.399 528.106 260.189 528.288 259.907C528.473 259.625 528.565 259.267 528.561 258.833ZM533.537 257.466V262H532.05V254.364H533.477V255.607H533.571C533.747 255.202 534.022 254.877 534.397 254.632C534.775 254.387 535.25 254.264 535.824 254.264C536.344 254.264 536.8 254.374 537.191 254.592C537.582 254.808 537.885 255.129 538.1 255.557C538.316 255.984 538.424 256.513 538.424 257.143V262H536.937V257.322C536.937 256.768 536.793 256.336 536.505 256.024C536.216 255.709 535.82 255.552 535.316 255.552C534.972 255.552 534.665 255.626 534.397 255.776C534.132 255.925 533.921 256.143 533.765 256.432C533.613 256.717 533.537 257.062 533.537 257.466Z" fill="#0F0F10"/>
<path d="M610.131 251.818H611.364V259.097C611.364 259.746 611.244 260.298 611.006 260.752C610.767 261.206 610.431 261.551 609.996 261.786C609.562 262.022 609.05 262.139 608.46 262.139C607.903 262.139 607.408 262.038 606.974 261.836C606.54 261.63 606.198 261.339 605.95 260.961C605.701 260.583 605.577 260.134 605.577 259.614H606.79C606.79 259.902 606.861 260.154 607.004 260.369C607.149 260.581 607.348 260.747 607.6 260.866C607.852 260.986 608.139 261.045 608.46 261.045C608.815 261.045 609.116 260.971 609.365 260.822C609.614 260.673 609.803 260.454 609.932 260.165C610.064 259.874 610.131 259.518 610.131 259.097V251.818ZM618.488 258.878V254.364H619.661V262H618.488V260.707H618.408C618.229 261.095 617.951 261.425 617.573 261.697C617.195 261.965 616.718 262.099 616.141 262.099C615.664 262.099 615.24 261.995 614.869 261.786C614.497 261.574 614.206 261.256 613.994 260.832C613.781 260.404 613.675 259.866 613.675 259.216V254.364H614.849V259.136C614.849 259.693 615.004 260.137 615.316 260.469C615.631 260.8 616.032 260.966 616.519 260.966C616.811 260.966 617.107 260.891 617.409 260.742C617.714 260.593 617.969 260.364 618.175 260.056C618.384 259.748 618.488 259.355 618.488 258.878ZM622.983 251.818V262H621.81V251.818H622.983Z" fill="#888E9E"/>
<path d="M691.651 262H690.358L694.097 251.818H695.369L699.108 262H697.815L694.773 253.429H694.693L691.651 262ZM692.128 258.023H697.338V259.116H692.128V258.023ZM705.347 258.878V254.364H706.521V262H705.347V260.707H705.268C705.089 261.095 704.81 261.425 704.433 261.697C704.055 261.965 703.577 262.099 703.001 262.099C702.523 262.099 702.099 261.995 701.728 261.786C701.357 261.574 701.065 261.256 700.853 260.832C700.641 260.404 700.535 259.866 700.535 259.216V254.364H701.708V259.136C701.708 259.693 701.864 260.137 702.175 260.469C702.49 260.8 702.891 260.966 703.379 260.966C703.67 260.966 703.967 260.891 704.268 260.742C704.573 260.593 704.829 260.364 705.034 260.056C705.243 259.748 705.347 259.355 705.347 258.878ZM711.752 265.023C711.185 265.023 710.698 264.95 710.29 264.804C709.883 264.661 709.543 264.473 709.271 264.237C709.003 264.005 708.789 263.757 708.63 263.491L709.564 262.835C709.671 262.974 709.805 263.134 709.967 263.312C710.13 263.495 710.352 263.652 710.633 263.785C710.918 263.921 711.291 263.989 711.752 263.989C712.368 263.989 712.877 263.839 713.278 263.541C713.679 263.243 713.88 262.776 713.88 262.139V260.588H713.78C713.694 260.727 713.572 260.9 713.412 261.105C713.257 261.307 713.031 261.488 712.736 261.647C712.445 261.803 712.05 261.881 711.553 261.881C710.937 261.881 710.383 261.735 709.893 261.443C709.405 261.152 709.019 260.727 708.734 260.17C708.452 259.614 708.312 258.937 708.312 258.142C708.312 257.36 708.449 256.679 708.724 256.099C708.999 255.515 709.382 255.065 709.873 254.746C710.363 254.425 710.93 254.264 711.573 254.264C712.07 254.264 712.465 254.347 712.756 254.513C713.051 254.675 713.277 254.861 713.432 255.07C713.591 255.275 713.714 255.444 713.8 255.577H713.92V254.364H715.053V262.219C715.053 262.875 714.904 263.409 714.606 263.82C714.311 264.234 713.913 264.537 713.412 264.729C712.915 264.925 712.362 265.023 711.752 265.023ZM711.712 260.827C712.183 260.827 712.581 260.719 712.905 260.504C713.23 260.288 713.477 259.978 713.646 259.574C713.815 259.17 713.9 258.686 713.9 258.122C713.9 257.572 713.817 257.086 713.651 256.665C713.485 256.245 713.24 255.915 712.915 255.676C712.59 255.437 712.189 255.318 711.712 255.318C711.215 255.318 710.801 255.444 710.469 255.696C710.141 255.948 709.894 256.286 709.729 256.71C709.566 257.134 709.485 257.605 709.485 258.122C709.485 258.652 709.568 259.121 709.733 259.529C709.903 259.933 710.151 260.252 710.479 260.484C710.811 260.712 711.222 260.827 711.712 260.827Z" fill="#888E9E"/>
<path d="M788.801 254.364C788.741 253.86 788.5 253.469 788.075 253.19C787.651 252.912 787.131 252.773 786.514 252.773C786.063 252.773 785.669 252.846 785.331 252.991C784.996 253.137 784.734 253.338 784.545 253.593C784.36 253.848 784.267 254.138 784.267 254.463C784.267 254.735 784.332 254.969 784.461 255.164C784.594 255.356 784.763 255.517 784.968 255.646C785.174 255.772 785.389 255.877 785.614 255.96C785.84 256.039 786.047 256.104 786.236 256.153L787.27 256.432C787.535 256.501 787.83 256.598 788.155 256.72C788.483 256.843 788.796 257.01 789.094 257.222C789.396 257.431 789.645 257.7 789.84 258.028C790.036 258.356 790.134 258.759 790.134 259.236C790.134 259.786 789.989 260.283 789.701 260.727C789.416 261.171 788.998 261.524 788.448 261.786C787.901 262.048 787.237 262.179 786.455 262.179C785.725 262.179 785.094 262.061 784.56 261.826C784.03 261.591 783.612 261.263 783.308 260.842C783.006 260.421 782.835 259.932 782.795 259.375H784.068C784.101 259.759 784.231 260.078 784.456 260.33C784.685 260.578 784.973 260.764 785.321 260.886C785.672 261.006 786.05 261.065 786.455 261.065C786.925 261.065 787.348 260.989 787.722 260.837C788.097 260.681 788.393 260.465 788.612 260.19C788.831 259.912 788.94 259.587 788.94 259.216C788.94 258.878 788.846 258.603 788.657 258.391C788.468 258.179 788.219 258.006 787.911 257.874C787.603 257.741 787.27 257.625 786.912 257.526L785.659 257.168C784.864 256.939 784.234 256.612 783.77 256.188C783.306 255.764 783.074 255.209 783.074 254.523C783.074 253.953 783.228 253.455 783.536 253.031C783.848 252.604 784.265 252.272 784.789 252.037C785.316 251.798 785.904 251.679 786.554 251.679C787.21 251.679 787.794 251.797 788.304 252.032C788.814 252.264 789.219 252.582 789.517 252.987C789.819 253.391 789.978 253.85 789.994 254.364H788.801ZM795.203 262.159C794.468 262.159 793.833 261.997 793.299 261.672C792.769 261.344 792.36 260.886 792.071 260.3C791.786 259.71 791.644 259.024 791.644 258.241C791.644 257.459 791.786 256.77 792.071 256.173C792.36 255.573 792.761 255.106 793.274 254.771C793.791 254.433 794.395 254.264 795.084 254.264C795.482 254.264 795.874 254.33 796.262 254.463C796.65 254.596 797.003 254.811 797.321 255.109C797.639 255.404 797.893 255.795 798.082 256.283C798.271 256.77 798.365 257.37 798.365 258.082V258.58H792.479V257.565H797.172C797.172 257.134 797.086 256.75 796.914 256.412C796.744 256.074 796.503 255.807 796.188 255.612C795.876 255.416 795.508 255.318 795.084 255.318C794.617 255.318 794.212 255.434 793.871 255.666C793.533 255.895 793.273 256.193 793.09 256.561C792.908 256.929 792.817 257.323 792.817 257.744V258.42C792.817 258.997 792.916 259.486 793.115 259.887C793.317 260.285 793.597 260.588 793.955 260.797C794.313 261.002 794.729 261.105 795.203 261.105C795.512 261.105 795.79 261.062 796.039 260.976C796.29 260.886 796.508 260.754 796.69 260.578C796.872 260.399 797.013 260.177 797.112 259.912L798.246 260.23C798.127 260.615 797.926 260.953 797.644 261.244C797.363 261.533 797.015 261.758 796.6 261.92C796.186 262.08 795.72 262.159 795.203 262.159ZM800.15 264.864V254.364H801.284V255.577H801.423C801.509 255.444 801.628 255.275 801.781 255.07C801.936 254.861 802.159 254.675 802.447 254.513C802.739 254.347 803.133 254.264 803.63 254.264C804.273 254.264 804.84 254.425 805.33 254.746C805.821 255.068 806.204 255.524 806.479 256.114C806.754 256.704 806.892 257.4 806.892 258.202C806.892 259.01 806.754 259.711 806.479 260.305C806.204 260.895 805.823 261.352 805.335 261.677C804.848 261.998 804.286 262.159 803.65 262.159C803.16 262.159 802.767 262.078 802.472 261.915C802.177 261.75 801.95 261.562 801.791 261.354C801.632 261.142 801.509 260.966 801.423 260.827H801.323V264.864H800.15ZM801.303 258.182C801.303 258.759 801.388 259.267 801.557 259.708C801.726 260.146 801.973 260.489 802.298 260.737C802.623 260.982 803.02 261.105 803.491 261.105C803.981 261.105 804.391 260.976 804.719 260.717C805.05 260.455 805.299 260.104 805.465 259.663C805.634 259.219 805.718 258.725 805.718 258.182C805.718 257.645 805.635 257.161 805.47 256.73C805.307 256.296 805.06 255.953 804.729 255.701C804.401 255.446 803.988 255.318 803.491 255.318C803.014 255.318 802.613 255.439 802.288 255.681C801.963 255.92 801.718 256.254 801.552 256.685C801.386 257.113 801.303 257.612 801.303 258.182Z" fill="#888E9E"/>
<path d="M882.824 256.909C882.824 257.983 882.63 258.911 882.242 259.693C881.854 260.475 881.322 261.079 880.646 261.503C879.97 261.927 879.198 262.139 878.33 262.139C877.461 262.139 876.689 261.927 876.013 261.503C875.337 261.079 874.805 260.475 874.417 259.693C874.029 258.911 873.835 257.983 873.835 256.909C873.835 255.835 874.029 254.907 874.417 254.125C874.805 253.343 875.337 252.74 876.013 252.315C876.689 251.891 877.461 251.679 878.33 251.679C879.198 251.679 879.97 251.891 880.646 252.315C881.322 252.74 881.854 253.343 882.242 254.125C882.63 254.907 882.824 255.835 882.824 256.909ZM881.631 256.909C881.631 256.027 881.483 255.283 881.188 254.677C880.897 254.07 880.5 253.611 880 253.3C879.503 252.988 878.946 252.832 878.33 252.832C877.713 252.832 877.155 252.988 876.654 253.3C876.157 253.611 875.761 254.07 875.466 254.677C875.174 255.283 875.028 256.027 875.028 256.909C875.028 257.791 875.174 258.535 875.466 259.141C875.761 259.748 876.157 260.207 876.654 260.518C877.155 260.83 877.713 260.986 878.33 260.986C878.946 260.986 879.503 260.83 880 260.518C880.5 260.207 880.897 259.748 881.188 259.141C881.483 258.535 881.631 257.791 881.631 256.909ZM887.84 262.159C887.124 262.159 886.508 261.99 885.991 261.652C885.474 261.314 885.076 260.848 884.798 260.255C884.519 259.662 884.38 258.984 884.38 258.222C884.38 257.446 884.522 256.762 884.808 256.168C885.096 255.572 885.497 255.106 886.011 254.771C886.528 254.433 887.131 254.264 887.82 254.264C888.357 254.264 888.841 254.364 889.272 254.562C889.703 254.761 890.056 255.04 890.331 255.398C890.606 255.756 890.777 256.173 890.843 256.651H889.67C889.58 256.303 889.381 255.994 889.073 255.726C888.768 255.454 888.357 255.318 887.84 255.318C887.383 255.318 886.982 255.437 886.637 255.676C886.296 255.911 886.029 256.245 885.837 256.675C885.648 257.103 885.553 257.605 885.553 258.182C885.553 258.772 885.646 259.286 885.832 259.723C886.021 260.161 886.286 260.5 886.627 260.742C886.972 260.984 887.376 261.105 887.84 261.105C888.145 261.105 888.422 261.052 888.67 260.946C888.919 260.84 889.129 260.688 889.302 260.489C889.474 260.29 889.597 260.051 889.67 259.773H890.843C890.777 260.223 890.613 260.629 890.351 260.991C890.092 261.349 889.749 261.634 889.322 261.846C888.897 262.055 888.404 262.159 887.84 262.159ZM895.879 254.364V255.358H891.922V254.364H895.879ZM893.075 252.534H894.249V259.812C894.249 260.144 894.297 260.393 894.393 260.558C894.492 260.721 894.618 260.83 894.771 260.886C894.926 260.939 895.09 260.966 895.263 260.966C895.392 260.966 895.498 260.959 895.581 260.946C895.664 260.929 895.73 260.916 895.78 260.906L896.018 261.96C895.939 261.99 895.828 262.02 895.685 262.05C895.543 262.083 895.362 262.099 895.143 262.099C894.812 262.099 894.487 262.028 894.169 261.886C893.854 261.743 893.592 261.526 893.384 261.234C893.178 260.943 893.075 260.575 893.075 260.131V252.534Z" fill="#888E9E"/>
<path d="M971.307 251.818V262H970.114L964.565 254.006H964.466V262H963.233V251.818H964.426L969.994 259.832H970.094V251.818H971.307ZM976.717 262.159C976.028 262.159 975.423 261.995 974.903 261.667C974.385 261.339 973.981 260.88 973.689 260.29C973.401 259.7 973.257 259.01 973.257 258.222C973.257 257.426 973.401 256.732 973.689 256.138C973.981 255.545 974.385 255.085 974.903 254.756C975.423 254.428 976.028 254.264 976.717 254.264C977.407 254.264 978.01 254.428 978.527 254.756C979.047 255.085 979.452 255.545 979.74 256.138C980.032 256.732 980.177 257.426 980.177 258.222C980.177 259.01 980.032 259.7 979.74 260.29C979.452 260.88 979.047 261.339 978.527 261.667C978.01 261.995 977.407 262.159 976.717 262.159ZM976.717 261.105C977.241 261.105 977.672 260.971 978.01 260.702C978.348 260.434 978.598 260.081 978.76 259.643C978.923 259.206 979.004 258.732 979.004 258.222C979.004 257.711 978.923 257.236 978.76 256.795C978.598 256.354 978.348 255.998 978.01 255.726C977.672 255.454 977.241 255.318 976.717 255.318C976.193 255.318 975.763 255.454 975.425 255.726C975.086 255.998 974.836 256.354 974.674 256.795C974.511 257.236 974.43 257.711 974.43 258.222C974.43 258.732 974.511 259.206 974.674 259.643C974.836 260.081 975.086 260.434 975.425 260.702C975.763 260.971 976.193 261.105 976.717 261.105ZM987.939 254.364L985.115 262H983.922L981.098 254.364H982.371L984.479 260.449H984.559L986.667 254.364H987.939Z" fill="#888E9E"/>
<path d="M1058.38 262H1055.23V251.818H1058.51C1059.5 251.818 1060.35 252.022 1061.05 252.43C1061.75 252.834 1062.29 253.416 1062.67 254.175C1063.04 254.93 1063.23 255.835 1063.23 256.889C1063.23 257.95 1063.04 258.863 1062.66 259.629C1062.28 260.391 1061.73 260.978 1061.01 261.388C1060.29 261.796 1059.41 262 1058.38 262ZM1056.47 260.906H1058.3C1059.14 260.906 1059.83 260.744 1060.39 260.419C1060.94 260.094 1061.35 259.632 1061.63 259.032C1061.9 258.432 1062.03 257.718 1062.03 256.889C1062.03 256.067 1061.9 255.36 1061.63 254.766C1061.36 254.17 1060.96 253.712 1060.43 253.394C1059.89 253.073 1059.23 252.912 1058.43 252.912H1056.47V260.906ZM1068.34 262.159C1067.6 262.159 1066.97 261.997 1066.43 261.672C1065.9 261.344 1065.49 260.886 1065.21 260.3C1064.92 259.71 1064.78 259.024 1064.78 258.241C1064.78 257.459 1064.92 256.77 1065.21 256.173C1065.49 255.573 1065.9 255.106 1066.41 254.771C1066.93 254.433 1067.53 254.264 1068.22 254.264C1068.62 254.264 1069.01 254.33 1069.4 254.463C1069.78 254.596 1070.14 254.811 1070.46 255.109C1070.77 255.404 1071.03 255.795 1071.22 256.283C1071.41 256.77 1071.5 257.37 1071.5 258.082V258.58H1065.61V257.565H1070.31C1070.31 257.134 1070.22 256.75 1070.05 256.412C1069.88 256.074 1069.64 255.807 1069.32 255.612C1069.01 255.416 1068.64 255.318 1068.22 255.318C1067.75 255.318 1067.35 255.434 1067.01 255.666C1066.67 255.895 1066.41 256.193 1066.23 256.561C1066.04 256.929 1065.95 257.323 1065.95 257.744V258.42C1065.95 258.997 1066.05 259.486 1066.25 259.887C1066.45 260.285 1066.73 260.588 1067.09 260.797C1067.45 261.002 1067.86 261.105 1068.34 261.105C1068.65 261.105 1068.92 261.062 1069.17 260.976C1069.43 260.886 1069.64 260.754 1069.82 260.578C1070.01 260.399 1070.15 260.177 1070.25 259.912L1071.38 260.23C1071.26 260.615 1071.06 260.953 1070.78 261.244C1070.5 261.533 1070.15 261.758 1069.74 261.92C1069.32 262.08 1068.86 262.159 1068.34 262.159ZM1076.39 262.159C1075.67 262.159 1075.05 261.99 1074.54 261.652C1074.02 261.314 1073.62 260.848 1073.34 260.255C1073.07 259.662 1072.93 258.984 1072.93 258.222C1072.93 257.446 1073.07 256.762 1073.35 256.168C1073.64 255.572 1074.04 255.106 1074.56 254.771C1075.07 254.433 1075.68 254.264 1076.37 254.264C1076.9 254.264 1077.39 254.364 1077.82 254.562C1078.25 254.761 1078.6 255.04 1078.88 255.398C1079.15 255.756 1079.32 256.173 1079.39 256.651H1078.22C1078.13 256.303 1077.93 255.994 1077.62 255.726C1077.32 255.454 1076.9 255.318 1076.39 255.318C1075.93 255.318 1075.53 255.437 1075.18 255.676C1074.84 255.911 1074.58 256.245 1074.38 256.675C1074.19 257.103 1074.1 257.605 1074.1 258.182C1074.1 258.772 1074.19 259.286 1074.38 259.723C1074.57 260.161 1074.83 260.5 1075.17 260.742C1075.52 260.984 1075.92 261.105 1076.39 261.105C1076.69 261.105 1076.97 261.052 1077.22 260.946C1077.47 260.84 1077.68 260.688 1077.85 260.489C1078.02 260.29 1078.14 260.051 1078.22 259.773H1079.39C1079.32 260.223 1079.16 260.629 1078.9 260.991C1078.64 261.349 1078.3 261.634 1077.87 261.846C1077.44 262.055 1076.95 262.159 1076.39 262.159Z" fill="#888E9E"/>
<defs>
<filter id="filter0_d_187_25168" x="47" y="26.219" width="1043.99" height="190.662" filterUnits="userSpaceOnUse" color-interpolation-filters="sRGB">
<feFlood flood-opacity="0" result="BackgroundImageFix"/>
<feColorMatrix in="SourceAlpha" type="matrix" values="0 0 0 0 0 0 0 0 0 0 0 0 0 0 0 0 0 0 127 0" result="hardAlpha"/>
<feOffset dy="6"/>
<feGaussianBlur stdDeviation="5"/>
<feComposite in2="hardAlpha" operator="out"/>
<feColorMatrix type="matrix" values="0 0 0 0 0.392157 0 0 0 0 0.219608 0 0 0 0 0.960784 0 0 0 0.2 0"/>
<feBlend mode="normal" in2="BackgroundImageFix" result="effect1_dropShadow_187_25168"/>
<feBlend mode="normal" in="SourceGraphic" in2="effect1_dropShadow_187_25168" result="shape"/>
</filter>
<filter id="filter1_d_187_25168" x="443" y="45" width="142" height="105" filterUnits="userSpaceOnUse" color-interpolation-filters="sRGB">
<feFlood flood-opacity="0" result="BackgroundImageFix"/>
<feColorMatrix in="SourceAlpha" type="matrix" values="0 0 0 0 0 0 0 0 0 0 0 0 0 0 0 0 0 0 127 0" result="hardAlpha"/>
<feOffset dy="14"/>
<feGaussianBlur stdDeviation="10"/>
<feComposite in2="hardAlpha" operator="out"/>
<feColorMatrix type="matrix" values="0 0 0 0 0 0 0 0 0 0 0 0 0 0 0 0 0 0 0.08 0"/>
<feBlend mode="normal" in2="BackgroundImageFix" result="effect1_dropShadow_187_25168"/>
<feBlend mode="normal" in="SourceGraphic" in2="effect1_dropShadow_187_25168" result="shape"/>
</filter>
<linearGradient id="paint0_linear_187_25168" x1="514" y1="138" x2="514" y2="234" gradientUnits="userSpaceOnUse">
<stop offset="0.388788" stop-color="#6438F5"/>
<stop offset="0.983641" stop-color="#6438F5" stop-opacity="0"/>
</linearGradient>
</defs>
</svg>
