<svg width="624" height="246" viewBox="0 0 624 246" fill="none" xmlns="http://www.w3.org/2000/svg">
<g filter="url(#filter0_d_204_31729)">
<path d="M4.81534 12.9119V11.8977L9.28977 4.81818H10.0256V6.3892H9.52841L6.14773 11.7386V11.8182H12.1733V12.9119H4.81534ZM9.60795 15V12.6037V12.1314V4.81818H10.7812V15H9.60795ZM17.3574 15.1392C16.6084 15.1392 15.9703 14.9354 15.4434 14.5277C14.9164 14.1167 14.5137 13.5218 14.2353 12.7429C13.9569 11.9607 13.8176 11.0161 13.8176 9.90909C13.8176 8.80871 13.9569 7.86908 14.2353 7.0902C14.517 6.308 14.9213 5.71141 15.4483 5.30043C15.9786 4.88613 16.615 4.67898 17.3574 4.67898C18.0998 4.67898 18.7346 4.88613 19.2615 5.30043C19.7918 5.71141 20.1962 6.308 20.4746 7.0902C20.7563 7.86908 20.8972 8.80871 20.8972 9.90909C20.8972 11.0161 20.758 11.9607 20.4796 12.7429C20.2012 13.5218 19.7985 14.1167 19.2715 14.5277C18.7445 14.9354 18.1065 15.1392 17.3574 15.1392ZM17.3574 14.0455C18.0998 14.0455 18.6766 13.6875 19.0875 12.9716C19.4985 12.2557 19.704 11.2348 19.704 9.90909C19.704 9.02746 19.6096 8.27675 19.4206 7.65696C19.235 7.03717 18.9666 6.56487 18.6152 6.24006C18.2672 5.91525 17.848 5.75284 17.3574 5.75284C16.6216 5.75284 16.0466 6.11577 15.6323 6.84162C15.218 7.56416 15.0108 8.58665 15.0108 9.90909C15.0108 10.7907 15.1036 11.5398 15.2892 12.1562C15.4748 12.7727 15.7417 13.2417 16.0897 13.5632C16.441 13.8847 16.8636 14.0455 17.3574 14.0455ZM22.9654 15V4.81818H24.1983V9.86932H24.3176L28.8915 4.81818H30.5023L26.2267 9.41193L30.5023 15H29.0108L25.4711 10.267L24.1983 11.6989V15H22.9654Z" fill="#888E9E"/>
<path d="M8.49432 61.1392C7.83807 61.1392 7.25308 61.0265 6.73935 60.8011C6.22893 60.5758 5.82292 60.2625 5.52131 59.8615C5.22301 59.4571 5.06061 58.9882 5.03409 58.4545H6.28693C6.31345 58.7827 6.42614 59.0661 6.625 59.3047C6.82386 59.54 7.08404 59.7223 7.40554 59.8516C7.72704 59.9808 8.08333 60.0455 8.47443 60.0455C8.91193 60.0455 9.29972 59.9692 9.63778 59.8168C9.97585 59.6643 10.241 59.4522 10.4332 59.1804C10.6255 58.9086 10.7216 58.5938 10.7216 58.2358C10.7216 57.8613 10.6288 57.5315 10.4432 57.2464C10.2576 56.9581 9.9858 56.7327 9.62784 56.5703C9.26989 56.4079 8.83239 56.3267 8.31534 56.3267H7.5V55.233H8.31534C8.7197 55.233 9.07434 55.16 9.37926 55.0142C9.6875 54.8684 9.92779 54.6629 10.1001 54.3977C10.2758 54.1326 10.3636 53.821 10.3636 53.4631C10.3636 53.1184 10.2874 52.8184 10.1349 52.5632C9.98248 52.308 9.76705 52.1091 9.48864 51.9666C9.21354 51.8241 8.88873 51.7528 8.5142 51.7528C8.16288 51.7528 7.83144 51.8175 7.51989 51.9467C7.21165 52.0727 6.95975 52.2566 6.7642 52.4986C6.56866 52.7372 6.46259 53.0256 6.44602 53.3636H5.25284C5.27273 52.83 5.43348 52.3627 5.73509 51.9616C6.0367 51.5573 6.43111 51.2424 6.91832 51.017C7.40885 50.7917 7.94744 50.679 8.53409 50.679C9.16383 50.679 9.70407 50.8066 10.1548 51.0618C10.6056 51.3137 10.9519 51.6468 11.1939 52.0611C11.4358 52.4754 11.5568 52.9228 11.5568 53.4034C11.5568 53.9768 11.406 54.4657 11.1044 54.87C10.8061 55.2744 10.4001 55.5545 9.88636 55.7102V55.7898C10.5294 55.8958 11.0315 56.1693 11.3928 56.6101C11.754 57.0476 11.9347 57.5895 11.9347 58.2358C11.9347 58.7893 11.7839 59.2865 11.4822 59.7273C11.1839 60.1648 10.7763 60.5095 10.2592 60.7614C9.74219 61.0133 9.15388 61.1392 8.49432 61.1392ZM17.2891 61.1392C16.54 61.1392 15.902 60.9354 15.375 60.5277C14.848 60.1167 14.4453 59.5218 14.1669 58.7429C13.8885 57.9607 13.7493 57.0161 13.7493 55.9091C13.7493 54.8087 13.8885 53.8691 14.1669 53.0902C14.4486 52.308 14.853 51.7114 15.38 51.3004C15.9103 50.8861 16.5466 50.679 17.2891 50.679C18.0315 50.679 18.6662 50.8861 19.1932 51.3004C19.7235 51.7114 20.1278 52.308 20.4062 53.0902C20.688 53.8691 20.8288 54.8087 20.8288 55.9091C20.8288 57.0161 20.6896 57.9607 20.4112 58.7429C20.1328 59.5218 19.7301 60.1167 19.2031 60.5277C18.6761 60.9354 18.0381 61.1392 17.2891 61.1392ZM17.2891 60.0455C18.0315 60.0455 18.6082 59.6875 19.0192 58.9716C19.4302 58.2557 19.6357 57.2348 19.6357 55.9091C19.6357 55.0275 19.5412 54.2768 19.3523 53.657C19.1667 53.0372 18.8982 52.5649 18.5469 52.2401C18.1989 51.9152 17.7796 51.7528 17.2891 51.7528C16.5533 51.7528 15.9782 52.1158 15.5639 52.8416C15.1496 53.5642 14.9425 54.5866 14.9425 55.9091C14.9425 56.7907 15.0353 57.5398 15.2209 58.1562C15.4065 58.7727 15.6733 59.2417 16.0213 59.5632C16.3726 59.8847 16.7952 60.0455 17.2891 60.0455ZM22.897 61V50.8182H24.13V55.8693H24.2493L28.8232 50.8182H30.4339L26.1584 55.4119L30.4339 61H28.9425L25.4027 56.267L24.13 57.6989V61H22.897Z" fill="#888E9E"/>
<path d="M5.05398 107V106.105L8.41477 102.426C8.80919 101.995 9.134 101.621 9.3892 101.303C9.64441 100.981 9.83333 100.679 9.95597 100.398C10.0819 100.113 10.1449 99.8144 10.1449 99.5028C10.1449 99.1449 10.0587 98.835 9.88636 98.5732C9.71733 98.3113 9.48532 98.1091 9.19034 97.9666C8.89536 97.8241 8.56392 97.7528 8.19602 97.7528C7.80492 97.7528 7.46354 97.834 7.17188 97.9964C6.88352 98.1555 6.6598 98.3793 6.50071 98.6676C6.34493 98.956 6.26705 99.294 6.26705 99.6818H5.09375C5.09375 99.0852 5.2313 98.5616 5.50639 98.1108C5.78149 97.66 6.15601 97.3087 6.62997 97.0568C7.10724 96.8049 7.64252 96.679 8.2358 96.679C8.83239 96.679 9.36103 96.8049 9.82173 97.0568C10.2824 97.3087 10.6437 97.6484 10.9055 98.076C11.1674 98.5036 11.2983 98.9792 11.2983 99.5028C11.2983 99.8774 11.2304 100.244 11.0945 100.602C10.9619 100.956 10.7299 101.352 10.3984 101.79C10.0703 102.224 9.61458 102.754 9.03125 103.381L6.74432 105.827V105.906H11.4773V107H5.05398ZM16.8516 107.139C16.1025 107.139 15.4645 106.935 14.9375 106.528C14.4105 106.117 14.0078 105.522 13.7294 104.743C13.451 103.961 13.3118 103.016 13.3118 101.909C13.3118 100.809 13.451 99.8691 13.7294 99.0902C14.0111 98.308 14.4155 97.7114 14.9425 97.3004C15.4728 96.8861 16.1091 96.679 16.8516 96.679C17.594 96.679 18.2287 96.8861 18.7557 97.3004C19.286 97.7114 19.6903 98.308 19.9688 99.0902C20.2505 99.8691 20.3913 100.809 20.3913 101.909C20.3913 103.016 20.2521 103.961 19.9737 104.743C19.6953 105.522 19.2926 106.117 18.7656 106.528C18.2386 106.935 17.6006 107.139 16.8516 107.139ZM16.8516 106.045C17.594 106.045 18.1707 105.687 18.5817 104.972C18.9927 104.256 19.1982 103.235 19.1982 101.909C19.1982 101.027 19.1037 100.277 18.9148 99.657C18.7292 99.0372 18.4607 98.5649 18.1094 98.2401C17.7614 97.9152 17.3421 97.7528 16.8516 97.7528C16.1158 97.7528 15.5407 98.1158 15.1264 98.8416C14.7121 99.5642 14.505 100.587 14.505 101.909C14.505 102.791 14.5978 103.54 14.7834 104.156C14.969 104.773 15.2358 105.242 15.5838 105.563C15.9351 105.885 16.3577 106.045 16.8516 106.045ZM22.4595 107V96.8182H23.6925V101.869H23.8118L28.3857 96.8182H29.9964L25.7209 101.412L29.9964 107H28.505L24.9652 102.267L23.6925 103.699V107H22.4595Z" fill="#888E9E"/>
<path d="M8.63352 142.818V153H7.40057V144.111H7.34091L4.85511 145.761V144.509L7.40057 142.818H8.63352ZM14.8828 153.139C14.1338 153.139 13.4957 152.935 12.9688 152.528C12.4418 152.117 12.0391 151.522 11.7607 150.743C11.4822 149.961 11.343 149.016 11.343 147.909C11.343 146.809 11.4822 145.869 11.7607 145.09C12.0424 144.308 12.4467 143.711 12.9737 143.3C13.504 142.886 14.1404 142.679 14.8828 142.679C15.6252 142.679 16.2599 142.886 16.7869 143.3C17.3172 143.711 17.7216 144.308 18 145.09C18.2817 145.869 18.4226 146.809 18.4226 147.909C18.4226 149.016 18.2834 149.961 18.005 150.743C17.7266 151.522 17.3239 152.117 16.7969 152.528C16.2699 152.935 15.6319 153.139 14.8828 153.139ZM14.8828 152.045C15.6252 152.045 16.2019 151.687 16.6129 150.972C17.0239 150.256 17.2294 149.235 17.2294 147.909C17.2294 147.027 17.1349 146.277 16.946 145.657C16.7604 145.037 16.492 144.565 16.1406 144.24C15.7926 143.915 15.3733 143.753 14.8828 143.753C14.147 143.753 13.572 144.116 13.1577 144.842C12.7434 145.564 12.5362 146.587 12.5362 147.909C12.5362 148.791 12.629 149.54 12.8146 150.156C13.0002 150.773 13.267 151.242 13.6151 151.563C13.9664 151.885 14.389 152.045 14.8828 152.045ZM20.4908 153V142.818H21.7237V147.869H21.843L26.4169 142.818H28.0277L23.7521 147.412L28.0277 153H26.5362L22.9964 148.267L21.7237 149.699V153H20.4908Z" fill="#888E9E"/>
<path d="M8.375 199.139C7.62595 199.139 6.98793 198.935 6.46094 198.528C5.93395 198.117 5.53125 197.522 5.25284 196.743C4.97443 195.961 4.83523 195.016 4.83523 193.909C4.83523 192.809 4.97443 191.869 5.25284 191.09C5.53456 190.308 5.93892 189.711 6.46591 189.3C6.99621 188.886 7.63258 188.679 8.375 188.679C9.11742 188.679 9.75213 188.886 10.2791 189.3C10.8094 189.711 11.2138 190.308 11.4922 191.09C11.7739 191.869 11.9148 192.809 11.9148 193.909C11.9148 195.016 11.7756 195.961 11.4972 196.743C11.2188 197.522 10.8161 198.117 10.2891 198.528C9.76207 198.935 9.12405 199.139 8.375 199.139ZM8.375 198.045C9.11742 198.045 9.69413 197.687 10.1051 196.972C10.5161 196.256 10.7216 195.235 10.7216 193.909C10.7216 193.027 10.6271 192.277 10.4382 191.657C10.2526 191.037 9.98414 190.565 9.63281 190.24C9.2848 189.915 8.86553 189.753 8.375 189.753C7.6392 189.753 7.06416 190.116 6.64986 190.842C6.23556 191.564 6.02841 192.587 6.02841 193.909C6.02841 194.791 6.12121 195.54 6.30682 196.156C6.49242 196.773 6.75923 197.242 7.10724 197.563C7.45857 197.885 7.88116 198.045 8.375 198.045Z" fill="#888E9E"/>
<rect x="40" y="23" width="580" height="1" fill="#EAEDF2"/>
<rect x="40" y="68" width="580" height="1" fill="#EAEDF2"/>
<rect x="40" y="113" width="580" height="1" fill="#EAEDF2"/>
<rect x="40" y="158" width="580" height="1" fill="#EAEDF2"/>
<rect x="40" y="203" width="580" height="1" fill="#EAEDF2"/>
<rect x="44.5" y="125.5" width="50" height="77" rx="7.5" stroke="#EAEDF2"/>
<rect x="46" y="127" width="47" height="36" rx="8" fill="#CFC1FC"/>
<rect x="46" y="165" width="47" height="36" rx="8" fill="#6438F5"/>
<rect x="119.5" y="87.5" width="50" height="115" rx="7.5" stroke="#EAEDF2"/>
<rect x="121" y="89" width="47" height="36" rx="8" fill="#CFC1FC"/>
<rect x="121" y="127" width="47" height="36" rx="8" fill="#CFC1FC"/>
<rect x="121" y="165" width="47" height="36" rx="8" fill="#6438F5"/>
<rect x="194.5" y="49.5" width="50" height="153" rx="7.5" stroke="#EAEDF2"/>
<rect x="196" y="51" width="47" height="36" rx="8" fill="#CFC1FC"/>
<rect x="196" y="89" width="47" height="36" rx="8" fill="#6438F5"/>
<rect x="196" y="127" width="47" height="36" rx="8" fill="#6438F5"/>
<rect x="196" y="165" width="47" height="36" rx="8" fill="#6438F5"/>
<rect x="269.5" y="11.5" width="50" height="191" rx="7.5" stroke="#EAEDF2"/>
<rect x="271" y="13" width="47" height="36" rx="8" fill="#CFC1FC"/>
<rect x="271" y="51" width="47" height="36" rx="8" fill="#CFC1FC"/>
<rect x="271" y="89" width="47" height="36" rx="8" fill="#CFC1FC"/>
<rect x="271" y="127" width="47" height="36" rx="8" fill="#CFC1FC"/>
<rect x="271" y="165" width="47" height="36" rx="8" fill="#6438F5"/>
<rect x="344.5" y="49.5" width="50" height="153" rx="7.5" stroke="#EAEDF2"/>
<rect x="346" y="51" width="47" height="36" rx="8" fill="#CFC1FC"/>
<rect x="346" y="89" width="47" height="36" rx="8" fill="#CFC1FC"/>
<rect x="346" y="127" width="47" height="36" rx="8" fill="#6438F5"/>
<rect x="346" y="165" width="47" height="36" rx="8" fill="#6438F5"/>
<rect x="419.5" y="49.5" width="50" height="153" rx="7.5" stroke="#EAEDF2"/>
<rect x="421" y="51" width="47" height="36" rx="8" fill="#CFC1FC"/>
<rect x="421" y="89" width="47" height="36" rx="8" fill="#CFC1FC"/>
<rect x="421" y="127" width="47" height="36" rx="8" fill="#CFC1FC"/>
<rect x="421" y="165" width="47" height="36" rx="8" fill="#6438F5"/>
<rect x="494.5" y="87.5" width="50" height="115" rx="7.5" stroke="#EAEDF2"/>
<rect x="496" y="89" width="47" height="36" rx="8" fill="#CFC1FC"/>
<rect x="496" y="127" width="47" height="36" rx="8" fill="#6438F5"/>
<rect x="496" y="165" width="47" height="36" rx="8" fill="#6438F5"/>
<rect x="569.5" y="125.5" width="50" height="77" rx="7.5" stroke="#EAEDF2"/>
<rect x="571" y="127" width="47" height="36" rx="8" fill="#CFC1FC"/>
<rect x="571" y="165" width="47" height="36" rx="8" fill="#6438F5"/>
<path d="M54.233 222.818H55.7045L59.1648 231.27H59.2841L62.7443 222.818H64.2159V233H63.0625V225.264H62.9631L59.7812 233H58.6676L55.4858 225.264H55.3864V233H54.233V222.818ZM68.7761 233.179C68.2922 233.179 67.853 233.088 67.4586 232.906C67.0642 232.72 66.751 232.453 66.519 232.105C66.287 231.754 66.171 231.33 66.171 230.832C66.171 230.395 66.2572 230.04 66.4295 229.768C66.6019 229.493 66.8322 229.278 67.1206 229.122C67.4089 228.966 67.7271 228.85 68.0751 228.774C68.4264 228.695 68.7794 228.632 69.1341 228.585C69.5981 228.526 69.9743 228.481 70.2626 228.451C70.5543 228.418 70.7664 228.363 70.899 228.287C71.0349 228.211 71.1028 228.078 71.1028 227.889V227.849C71.1028 227.359 70.9686 226.978 70.7001 226.706C70.435 226.434 70.0323 226.298 69.492 226.298C68.9319 226.298 68.4927 226.421 68.1745 226.666C67.8564 226.911 67.6326 227.173 67.5034 227.452L66.3897 227.054C66.5886 226.59 66.8538 226.229 67.1852 225.97C67.5199 225.708 67.8845 225.526 68.2789 225.423C68.6767 225.317 69.0678 225.264 69.4522 225.264C69.6975 225.264 69.9792 225.294 70.2974 225.354C70.6189 225.41 70.9288 225.528 71.2271 225.707C71.5287 225.886 71.7789 226.156 71.9778 226.517C72.1767 226.878 72.2761 227.362 72.2761 227.969V233H71.1028V231.966H71.0431C70.9636 232.132 70.831 232.309 70.6454 232.498C70.4598 232.687 70.2129 232.848 69.9047 232.98C69.5964 233.113 69.2202 233.179 68.7761 233.179ZM68.9551 232.125C69.4191 232.125 69.8102 232.034 70.1284 231.852C70.4499 231.669 70.6918 231.434 70.8542 231.146C71.0199 230.857 71.1028 230.554 71.1028 230.236V229.162C71.0531 229.222 70.9437 229.276 70.7747 229.326C70.609 229.372 70.4167 229.414 70.198 229.45C69.9825 229.483 69.7721 229.513 69.5666 229.54C69.3644 229.563 69.2003 229.583 69.0744 229.599C68.7695 229.639 68.4844 229.704 68.2193 229.793C67.9574 229.879 67.7453 230.01 67.5829 230.186C67.4238 230.358 67.3443 230.594 67.3443 230.892C67.3443 231.3 67.4951 231.608 67.7967 231.817C68.1016 232.022 68.4877 232.125 68.9551 232.125ZM74.8999 235.864C74.701 235.864 74.5237 235.847 74.3679 235.814C74.2121 235.784 74.1044 235.754 74.0447 235.724L74.343 234.69C74.6281 234.763 74.88 234.79 75.0987 234.77C75.3175 234.75 75.5114 234.652 75.6804 234.477C75.8527 234.304 76.0102 234.024 76.1527 233.636L76.3714 233.04L73.5476 225.364H74.8203L76.9283 231.449H77.0078L79.1158 225.364H80.3885L77.147 234.114C77.0012 234.508 76.8205 234.835 76.6051 235.093C76.3897 235.355 76.1394 235.549 75.8544 235.675C75.5727 235.801 75.2545 235.864 74.8999 235.864Z" fill="#888E9E"/>
<path d="M138.131 222.818H139.364V230.097C139.364 230.746 139.244 231.298 139.006 231.752C138.767 232.206 138.431 232.551 137.996 232.786C137.562 233.022 137.05 233.139 136.46 233.139C135.903 233.139 135.408 233.038 134.974 232.836C134.54 232.63 134.198 232.339 133.95 231.961C133.701 231.583 133.577 231.134 133.577 230.614H134.79C134.79 230.902 134.861 231.154 135.004 231.369C135.149 231.581 135.348 231.747 135.6 231.866C135.852 231.986 136.139 232.045 136.46 232.045C136.815 232.045 137.116 231.971 137.365 231.822C137.614 231.673 137.803 231.454 137.932 231.165C138.064 230.874 138.131 230.518 138.131 230.097V222.818ZM146.488 229.878V225.364H147.661V233H146.488V231.707H146.408C146.229 232.095 145.951 232.425 145.573 232.697C145.195 232.965 144.718 233.099 144.141 233.099C143.664 233.099 143.24 232.995 142.869 232.786C142.497 232.574 142.206 232.256 141.994 231.832C141.781 231.404 141.675 230.866 141.675 230.216V225.364H142.849V230.136C142.849 230.693 143.004 231.137 143.316 231.469C143.631 231.8 144.032 231.966 144.519 231.966C144.811 231.966 145.107 231.891 145.409 231.742C145.714 231.593 145.969 231.364 146.175 231.056C146.384 230.748 146.488 230.355 146.488 229.878ZM150.983 228.406V233H149.81V225.364H150.944V226.557H151.043C151.222 226.169 151.494 225.857 151.858 225.622C152.223 225.384 152.694 225.264 153.27 225.264C153.787 225.264 154.24 225.37 154.628 225.582C155.015 225.791 155.317 226.109 155.532 226.537C155.748 226.961 155.856 227.498 155.856 228.148V233H154.682V228.227C154.682 227.627 154.527 227.16 154.215 226.825C153.903 226.487 153.476 226.318 152.932 226.318C152.558 226.318 152.223 226.399 151.928 226.562C151.636 226.724 151.406 226.961 151.237 227.273C151.068 227.584 150.983 227.962 150.983 228.406Z" fill="#888E9E"/>
<path d="M214.131 222.818H215.364V230.097C215.364 230.746 215.244 231.298 215.006 231.752C214.767 232.206 214.431 232.551 213.996 232.786C213.562 233.022 213.05 233.139 212.46 233.139C211.903 233.139 211.408 233.038 210.974 232.836C210.54 232.63 210.198 232.339 209.95 231.961C209.701 231.583 209.577 231.134 209.577 230.614H210.79C210.79 230.902 210.861 231.154 211.004 231.369C211.149 231.581 211.348 231.747 211.6 231.866C211.852 231.986 212.139 232.045 212.46 232.045C212.815 232.045 213.116 231.971 213.365 231.822C213.614 231.673 213.803 231.454 213.932 231.165C214.064 230.874 214.131 230.518 214.131 230.097V222.818ZM222.488 229.878V225.364H223.661V233H222.488V231.707H222.408C222.229 232.095 221.951 232.425 221.573 232.697C221.195 232.965 220.718 233.099 220.141 233.099C219.664 233.099 219.24 232.995 218.869 232.786C218.497 232.574 218.206 232.256 217.994 231.832C217.781 231.404 217.675 230.866 217.675 230.216V225.364H218.849V230.136C218.849 230.693 219.004 231.137 219.316 231.469C219.631 231.8 220.032 231.966 220.519 231.966C220.811 231.966 221.107 231.891 221.409 231.742C221.714 231.593 221.969 231.364 222.175 231.056C222.384 230.748 222.488 230.355 222.488 229.878ZM226.983 222.818V233H225.81V222.818H226.983Z" fill="#888E9E"/>
<path d="M282.651 233H281.358L285.097 222.818H286.369L290.108 233H288.815L285.773 224.429H285.693L282.651 233ZM283.128 229.023H288.338V230.116H283.128V229.023ZM296.347 229.878V225.364H297.521V233H296.347V231.707H296.268C296.089 232.095 295.81 232.425 295.433 232.697C295.055 232.965 294.577 233.099 294.001 233.099C293.523 233.099 293.099 232.995 292.728 232.786C292.357 232.574 292.065 232.256 291.853 231.832C291.641 231.404 291.535 230.866 291.535 230.216V225.364H292.708V230.136C292.708 230.693 292.864 231.137 293.175 231.469C293.49 231.8 293.891 231.966 294.379 231.966C294.67 231.966 294.967 231.891 295.268 231.742C295.573 231.593 295.829 231.364 296.034 231.056C296.243 230.748 296.347 230.355 296.347 229.878ZM302.752 236.023C302.185 236.023 301.698 235.95 301.29 235.804C300.883 235.661 300.543 235.473 300.271 235.237C300.003 235.005 299.789 234.757 299.63 234.491L300.564 233.835C300.671 233.974 300.805 234.134 300.967 234.312C301.13 234.495 301.352 234.652 301.633 234.785C301.918 234.921 302.291 234.989 302.752 234.989C303.368 234.989 303.877 234.839 304.278 234.541C304.679 234.243 304.88 233.776 304.88 233.139V231.588H304.78C304.694 231.727 304.572 231.9 304.412 232.105C304.257 232.307 304.031 232.488 303.736 232.647C303.445 232.803 303.05 232.881 302.553 232.881C301.937 232.881 301.383 232.735 300.893 232.443C300.405 232.152 300.019 231.727 299.734 231.17C299.452 230.614 299.312 229.937 299.312 229.142C299.312 228.36 299.449 227.679 299.724 227.099C299.999 226.515 300.382 226.065 300.873 225.746C301.363 225.425 301.93 225.264 302.573 225.264C303.07 225.264 303.465 225.347 303.756 225.513C304.051 225.675 304.277 225.861 304.432 226.07C304.591 226.275 304.714 226.444 304.8 226.577H304.92V225.364H306.053V233.219C306.053 233.875 305.904 234.409 305.606 234.82C305.311 235.234 304.913 235.537 304.412 235.729C303.915 235.925 303.362 236.023 302.752 236.023ZM302.712 231.827C303.183 231.827 303.581 231.719 303.905 231.504C304.23 231.288 304.477 230.978 304.646 230.574C304.815 230.17 304.9 229.686 304.9 229.122C304.9 228.572 304.817 228.086 304.651 227.665C304.485 227.245 304.24 226.915 303.915 226.676C303.59 226.437 303.189 226.318 302.712 226.318C302.215 226.318 301.801 226.444 301.469 226.696C301.141 226.948 300.894 227.286 300.729 227.71C300.566 228.134 300.485 228.605 300.485 229.122C300.485 229.652 300.568 230.121 300.733 230.529C300.903 230.933 301.151 231.252 301.479 231.484C301.811 231.712 302.222 231.827 302.712 231.827Z" fill="#888E9E"/>
<path d="M366.801 225.364C366.741 224.86 366.5 224.469 366.075 224.19C365.651 223.912 365.131 223.773 364.514 223.773C364.063 223.773 363.669 223.846 363.331 223.991C362.996 224.137 362.734 224.338 362.545 224.593C362.36 224.848 362.267 225.138 362.267 225.463C362.267 225.735 362.332 225.969 362.461 226.164C362.594 226.356 362.763 226.517 362.968 226.646C363.174 226.772 363.389 226.877 363.614 226.96C363.84 227.039 364.047 227.104 364.236 227.153L365.27 227.432C365.535 227.501 365.83 227.598 366.155 227.72C366.483 227.843 366.796 228.01 367.094 228.222C367.396 228.431 367.645 228.7 367.84 229.028C368.036 229.356 368.134 229.759 368.134 230.236C368.134 230.786 367.989 231.283 367.701 231.727C367.416 232.171 366.998 232.524 366.448 232.786C365.901 233.048 365.237 233.179 364.455 233.179C363.725 233.179 363.094 233.061 362.56 232.826C362.03 232.591 361.612 232.263 361.308 231.842C361.006 231.421 360.835 230.932 360.795 230.375H362.068C362.101 230.759 362.231 231.078 362.456 231.33C362.685 231.578 362.973 231.764 363.321 231.886C363.672 232.006 364.05 232.065 364.455 232.065C364.925 232.065 365.348 231.989 365.722 231.837C366.097 231.681 366.393 231.465 366.612 231.19C366.831 230.912 366.94 230.587 366.94 230.216C366.94 229.878 366.846 229.603 366.657 229.391C366.468 229.179 366.219 229.006 365.911 228.874C365.603 228.741 365.27 228.625 364.912 228.526L363.659 228.168C362.864 227.939 362.234 227.612 361.77 227.188C361.306 226.764 361.074 226.209 361.074 225.523C361.074 224.953 361.228 224.455 361.536 224.031C361.848 223.604 362.265 223.272 362.789 223.037C363.316 222.798 363.904 222.679 364.554 222.679C365.21 222.679 365.794 222.797 366.304 223.032C366.814 223.264 367.219 223.582 367.517 223.987C367.819 224.391 367.978 224.85 367.994 225.364H366.801ZM373.203 233.159C372.468 233.159 371.833 232.997 371.299 232.672C370.769 232.344 370.36 231.886 370.071 231.3C369.786 230.71 369.644 230.024 369.644 229.241C369.644 228.459 369.786 227.77 370.071 227.173C370.36 226.573 370.761 226.106 371.274 225.771C371.791 225.433 372.395 225.264 373.084 225.264C373.482 225.264 373.874 225.33 374.262 225.463C374.65 225.596 375.003 225.811 375.321 226.109C375.639 226.404 375.893 226.795 376.082 227.283C376.271 227.77 376.365 228.37 376.365 229.082V229.58H370.479V228.565H375.172C375.172 228.134 375.086 227.75 374.914 227.412C374.744 227.074 374.503 226.807 374.188 226.612C373.876 226.416 373.508 226.318 373.084 226.318C372.617 226.318 372.212 226.434 371.871 226.666C371.533 226.895 371.273 227.193 371.09 227.561C370.908 227.929 370.817 228.323 370.817 228.744V229.42C370.817 229.997 370.916 230.486 371.115 230.887C371.317 231.285 371.597 231.588 371.955 231.797C372.313 232.002 372.729 232.105 373.203 232.105C373.512 232.105 373.79 232.062 374.039 231.976C374.29 231.886 374.508 231.754 374.69 231.578C374.872 231.399 375.013 231.177 375.112 230.912L376.246 231.23C376.127 231.615 375.926 231.953 375.644 232.244C375.363 232.533 375.015 232.758 374.6 232.92C374.186 233.08 373.72 233.159 373.203 233.159ZM378.15 235.864V225.364H379.284V226.577H379.423C379.509 226.444 379.628 226.275 379.781 226.07C379.936 225.861 380.159 225.675 380.447 225.513C380.739 225.347 381.133 225.264 381.63 225.264C382.273 225.264 382.84 225.425 383.33 225.746C383.821 226.068 384.204 226.524 384.479 227.114C384.754 227.704 384.892 228.4 384.892 229.202C384.892 230.01 384.754 230.711 384.479 231.305C384.204 231.895 383.823 232.352 383.335 232.677C382.848 232.998 382.286 233.159 381.65 233.159C381.16 233.159 380.767 233.078 380.472 232.915C380.177 232.75 379.95 232.562 379.791 232.354C379.632 232.142 379.509 231.966 379.423 231.827H379.323V235.864H378.15ZM379.303 229.182C379.303 229.759 379.388 230.267 379.557 230.708C379.726 231.146 379.973 231.489 380.298 231.737C380.623 231.982 381.02 232.105 381.491 232.105C381.981 232.105 382.391 231.976 382.719 231.717C383.05 231.455 383.299 231.104 383.465 230.663C383.634 230.219 383.718 229.725 383.718 229.182C383.718 228.645 383.635 228.161 383.47 227.73C383.307 227.296 383.06 226.953 382.729 226.701C382.401 226.446 381.988 226.318 381.491 226.318C381.014 226.318 380.613 226.439 380.288 226.681C379.963 226.92 379.718 227.254 379.552 227.685C379.386 228.113 379.303 228.612 379.303 229.182Z" fill="#888E9E"/>
<path d="M447.824 227.909C447.824 228.983 447.63 229.911 447.242 230.693C446.854 231.475 446.322 232.079 445.646 232.503C444.97 232.927 444.198 233.139 443.33 233.139C442.461 233.139 441.689 232.927 441.013 232.503C440.337 232.079 439.805 231.475 439.417 230.693C439.029 229.911 438.835 228.983 438.835 227.909C438.835 226.835 439.029 225.907 439.417 225.125C439.805 224.343 440.337 223.74 441.013 223.315C441.689 222.891 442.461 222.679 443.33 222.679C444.198 222.679 444.97 222.891 445.646 223.315C446.322 223.74 446.854 224.343 447.242 225.125C447.63 225.907 447.824 226.835 447.824 227.909ZM446.631 227.909C446.631 227.027 446.483 226.283 446.188 225.677C445.897 225.07 445.5 224.611 445 224.3C444.503 223.988 443.946 223.832 443.33 223.832C442.713 223.832 442.155 223.988 441.654 224.3C441.157 224.611 440.761 225.07 440.466 225.677C440.174 226.283 440.028 227.027 440.028 227.909C440.028 228.791 440.174 229.535 440.466 230.141C440.761 230.748 441.157 231.207 441.654 231.518C442.155 231.83 442.713 231.986 443.33 231.986C443.946 231.986 444.503 231.83 445 231.518C445.5 231.207 445.897 230.748 446.188 230.141C446.483 229.535 446.631 228.791 446.631 227.909ZM452.84 233.159C452.124 233.159 451.508 232.99 450.991 232.652C450.474 232.314 450.076 231.848 449.798 231.255C449.519 230.662 449.38 229.984 449.38 229.222C449.38 228.446 449.522 227.762 449.808 227.168C450.096 226.572 450.497 226.106 451.011 225.771C451.528 225.433 452.131 225.264 452.82 225.264C453.357 225.264 453.841 225.364 454.272 225.562C454.703 225.761 455.056 226.04 455.331 226.398C455.606 226.756 455.777 227.173 455.843 227.651H454.67C454.58 227.303 454.381 226.994 454.073 226.726C453.768 226.454 453.357 226.318 452.84 226.318C452.383 226.318 451.982 226.437 451.637 226.676C451.296 226.911 451.029 227.245 450.837 227.675C450.648 228.103 450.553 228.605 450.553 229.182C450.553 229.772 450.646 230.286 450.832 230.723C451.021 231.161 451.286 231.5 451.627 231.742C451.972 231.984 452.376 232.105 452.84 232.105C453.145 232.105 453.422 232.052 453.67 231.946C453.919 231.84 454.129 231.688 454.302 231.489C454.474 231.29 454.597 231.051 454.67 230.773H455.843C455.777 231.223 455.613 231.629 455.351 231.991C455.092 232.349 454.749 232.634 454.322 232.846C453.897 233.055 453.404 233.159 452.84 233.159ZM460.879 225.364V226.358H456.922V225.364H460.879ZM458.075 223.534H459.249V230.812C459.249 231.144 459.297 231.393 459.393 231.558C459.492 231.721 459.618 231.83 459.771 231.886C459.926 231.939 460.09 231.966 460.263 231.966C460.392 231.966 460.498 231.959 460.581 231.946C460.664 231.929 460.73 231.916 460.78 231.906L461.018 232.96C460.939 232.99 460.828 233.02 460.685 233.05C460.543 233.083 460.362 233.099 460.143 233.099C459.812 233.099 459.487 233.028 459.169 232.886C458.854 232.743 458.592 232.526 458.384 232.234C458.178 231.943 458.075 231.575 458.075 231.131V223.534Z" fill="#888E9E"/>
<path d="M523.307 222.818V233H522.114L516.565 225.006H516.466V233H515.233V222.818H516.426L521.994 230.832H522.094V222.818H523.307ZM528.717 233.159C528.028 233.159 527.423 232.995 526.903 232.667C526.385 232.339 525.981 231.88 525.689 231.29C525.401 230.7 525.257 230.01 525.257 229.222C525.257 228.426 525.401 227.732 525.689 227.138C525.981 226.545 526.385 226.085 526.903 225.756C527.423 225.428 528.028 225.264 528.717 225.264C529.407 225.264 530.01 225.428 530.527 225.756C531.047 226.085 531.452 226.545 531.74 227.138C532.032 227.732 532.177 228.426 532.177 229.222C532.177 230.01 532.032 230.7 531.74 231.29C531.452 231.88 531.047 232.339 530.527 232.667C530.01 232.995 529.407 233.159 528.717 233.159ZM528.717 232.105C529.241 232.105 529.672 231.971 530.01 231.702C530.348 231.434 530.598 231.081 530.76 230.643C530.923 230.206 531.004 229.732 531.004 229.222C531.004 228.711 530.923 228.236 530.76 227.795C530.598 227.354 530.348 226.998 530.01 226.726C529.672 226.454 529.241 226.318 528.717 226.318C528.193 226.318 527.763 226.454 527.425 226.726C527.086 226.998 526.836 227.354 526.674 227.795C526.511 228.236 526.43 228.711 526.43 229.222C526.43 229.732 526.511 230.206 526.674 230.643C526.836 231.081 527.086 231.434 527.425 231.702C527.763 231.971 528.193 232.105 528.717 232.105ZM539.939 225.364L537.115 233H535.922L533.098 225.364H534.371L536.479 231.449H536.559L538.667 225.364H539.939Z" fill="#888E9E"/>
<path d="M597.375 233H594.233V222.818H597.514C598.502 222.818 599.347 223.022 600.05 223.43C600.752 223.834 601.291 224.416 601.665 225.175C602.04 225.93 602.227 226.835 602.227 227.889C602.227 228.95 602.038 229.863 601.661 230.629C601.283 231.391 600.732 231.978 600.01 232.388C599.287 232.796 598.409 233 597.375 233ZM595.466 231.906H597.295C598.137 231.906 598.835 231.744 599.388 231.419C599.942 231.094 600.355 230.632 600.626 230.032C600.898 229.432 601.034 228.718 601.034 227.889C601.034 227.067 600.9 226.36 600.631 225.766C600.363 225.17 599.962 224.712 599.428 224.394C598.895 224.073 598.23 223.912 597.435 223.912H595.466V231.906ZM607.338 233.159C606.602 233.159 605.968 232.997 605.434 232.672C604.904 232.344 604.494 231.886 604.206 231.3C603.921 230.71 603.778 230.024 603.778 229.241C603.778 228.459 603.921 227.77 604.206 227.173C604.494 226.573 604.895 226.106 605.409 225.771C605.926 225.433 606.529 225.264 607.219 225.264C607.616 225.264 608.009 225.33 608.397 225.463C608.785 225.596 609.138 225.811 609.456 226.109C609.774 226.404 610.028 226.795 610.217 227.283C610.406 227.77 610.5 228.37 610.5 229.082V229.58H604.614V228.565H609.307C609.307 228.134 609.221 227.75 609.048 227.412C608.879 227.074 608.637 226.807 608.322 226.612C608.011 226.416 607.643 226.318 607.219 226.318C606.751 226.318 606.347 226.434 606.006 226.666C605.668 226.895 605.407 227.193 605.225 227.561C605.043 227.929 604.952 228.323 604.952 228.744V229.42C604.952 229.997 605.051 230.486 605.25 230.887C605.452 231.285 605.732 231.588 606.09 231.797C606.448 232.002 606.864 232.105 607.338 232.105C607.646 232.105 607.925 232.062 608.173 231.976C608.425 231.886 608.642 231.754 608.825 231.578C609.007 231.399 609.148 231.177 609.247 230.912L610.381 231.23C610.261 231.615 610.061 231.953 609.779 232.244C609.497 232.533 609.149 232.758 608.735 232.92C608.321 233.08 607.855 233.159 607.338 233.159ZM615.387 233.159C614.671 233.159 614.055 232.99 613.538 232.652C613.021 232.314 612.623 231.848 612.344 231.255C612.066 230.662 611.927 229.984 611.927 229.222C611.927 228.446 612.069 227.762 612.354 227.168C612.643 226.572 613.044 226.106 613.558 225.771C614.075 225.433 614.678 225.264 615.367 225.264C615.904 225.264 616.388 225.364 616.819 225.562C617.25 225.761 617.603 226.04 617.878 226.398C618.153 226.756 618.324 227.173 618.39 227.651H617.217C617.127 227.303 616.928 226.994 616.62 226.726C616.315 226.454 615.904 226.318 615.387 226.318C614.93 226.318 614.529 226.437 614.184 226.676C613.843 226.911 613.576 227.245 613.384 227.675C613.195 228.103 613.1 228.605 613.1 229.182C613.1 229.772 613.193 230.286 613.379 230.723C613.567 231.161 613.833 231.5 614.174 231.742C614.519 231.984 614.923 232.105 615.387 232.105C615.692 232.105 615.969 232.052 616.217 231.946C616.466 231.84 616.676 231.688 616.849 231.489C617.021 231.29 617.144 231.051 617.217 230.773H618.39C618.324 231.223 618.16 231.629 617.898 231.991C617.639 232.349 617.296 232.634 616.869 232.846C616.444 233.055 615.951 233.159 615.387 233.159Z" fill="#888E9E"/>
</g>
<defs>
<filter id="filter0_d_204_31729" x="0" y="0" width="624" height="246" filterUnits="userSpaceOnUse" color-interpolation-filters="sRGB">
<feFlood flood-opacity="0" result="BackgroundImageFix"/>
<feColorMatrix in="SourceAlpha" type="matrix" values="0 0 0 0 0 0 0 0 0 0 0 0 0 0 0 0 0 0 127 0" result="hardAlpha"/>
<feOffset dy="4"/>
<feGaussianBlur stdDeviation="2"/>
<feComposite in2="hardAlpha" operator="out"/>
<feColorMatrix type="matrix" values="0 0 0 0 0 0 0 0 0 0 0 0 0 0 0 0 0 0 0.25 0"/>
<feBlend mode="normal" in2="BackgroundImageFix" result="effect1_dropShadow_204_31729"/>
<feBlend mode="normal" in="SourceGraphic" in2="effect1_dropShadow_204_31729" result="shape"/>
</filter>
</defs>
</svg>
